<svg width="1920" height="935" viewBox="0 0 1920 935" fill="none" xmlns="http://www.w3.org/2000/svg">
<g clip-path="url(#clip0_2140_4264)">
<rect width="1920" height="935" fill="#F0EDE1"/>
<g opacity="0.2">
<path fill-rule="evenodd" clip-rule="evenodd" d="M221.038 -35C259.278 -35 290.277 -4.00743 290.277 34.2239V864.91C290.277 903.141 259.278 934.134 221.038 934.134C182.798 934.134 151.798 903.141 151.798 864.91V34.2239C151.798 -4.00743 182.798 -35 221.038 -35Z" stroke="url(#paint0_linear_2140_4264)" stroke-linecap="round" stroke-linejoin="round"/>
<path fill-rule="evenodd" clip-rule="evenodd" d="M125.025 194.822C92.9854 194.822 60.4031 223.84 60.4031 266.815C60.4031 299.357 67.3881 311.092 70.8908 315.552C75.0454 320.841 83.3568 327.433 105.584 335.363L383.659 432.344C416.193 443.921 453.368 462.092 481.136 497.644C509.519 533.983 521.076 579.307 521.076 631.394C521.076 744.707 433.355 841.834 317.972 841.834H144.414C18.3727 841.834 -79 735.917 -79 611.088C-79 572.857 -48.0004 541.864 -9.76048 541.864C28.4795 541.864 59.479 572.857 59.479 611.088C59.479 665.318 100.588 703.386 144.414 703.386H317.972C350.3 703.386 382.597 674.988 382.597 631.394C382.597 599.489 375.69 587.588 371.992 582.854C367.693 577.35 359.209 570.623 337.42 562.847L59.3407 465.865C27.2443 454.443 -10.1057 436.597 -38.0196 401.06C-66.5974 364.677 -78.0759 319.188 -78.0759 266.815C-78.0759 154.729 9.35364 56.3746 125.025 56.3746H298.586C424.627 56.3746 522 162.291 522 287.121C522 325.352 491 356.345 452.76 356.345C414.521 356.345 383.521 325.352 383.521 287.121C383.521 232.891 342.412 194.822 298.586 194.822H125.025Z" stroke="url(#paint1_linear_2140_4264)" stroke-linecap="round" stroke-linejoin="round"/>
</g>
<g opacity="0.2">
<path fill-rule="evenodd" clip-rule="evenodd" d="M1660.04 -35C1698.28 -35 1729.28 -4.00743 1729.28 34.2239V864.91C1729.28 903.141 1698.28 934.134 1660.04 934.134C1621.8 934.134 1590.8 903.141 1590.8 864.91V34.2239C1590.8 -4.00743 1621.8 -35 1660.04 -35Z" stroke="url(#paint2_linear_2140_4264)" stroke-linecap="round" stroke-linejoin="round"/>
<path fill-rule="evenodd" clip-rule="evenodd" d="M1564.03 194.822C1531.99 194.822 1499.4 223.84 1499.4 266.815C1499.4 299.357 1506.39 311.092 1509.89 315.552C1514.05 320.841 1522.36 327.433 1544.58 335.363L1822.66 432.344C1855.19 443.921 1892.37 462.092 1920.14 497.644C1948.52 533.983 1960.08 579.307 1960.08 631.394C1960.08 744.707 1872.36 841.834 1756.97 841.834H1583.41C1457.37 841.834 1360 735.917 1360 611.088C1360 572.857 1391 541.864 1429.24 541.864C1467.48 541.864 1498.48 572.857 1498.48 611.088C1498.48 665.318 1539.59 703.386 1583.41 703.386H1756.97C1789.3 703.386 1821.6 674.988 1821.6 631.394C1821.6 599.489 1814.69 587.588 1810.99 582.854C1806.69 577.35 1798.21 570.623 1776.42 562.847L1498.34 465.865C1466.24 454.443 1428.89 436.597 1400.98 401.06C1372.4 364.677 1360.92 319.188 1360.92 266.815C1360.92 154.729 1448.35 56.3746 1564.03 56.3746H1737.59C1863.63 56.3746 1961 162.291 1961 287.121C1961 325.352 1930 356.345 1891.76 356.345C1853.52 356.345 1822.52 325.352 1822.52 287.121C1822.52 232.891 1781.41 194.822 1737.59 194.822H1564.03Z" stroke="url(#paint3_linear_2140_4264)" stroke-linecap="round" stroke-linejoin="round"/>
</g>
</g>
<defs>
<linearGradient id="paint0_linear_2140_4264" x1="241.395" y1="-208.528" x2="118.051" y2="-206.434" gradientUnits="userSpaceOnUse">
<stop stop-color="#995800"/>
<stop offset="1" stop-color="#E68600"/>
</linearGradient>
<linearGradient id="paint1_linear_2140_4264" x1="309.851" y1="-84.2652" x2="-221.231" y2="-35.9988" gradientUnits="userSpaceOnUse">
<stop stop-color="#995800"/>
<stop offset="1" stop-color="#E68600"/>
</linearGradient>
<linearGradient id="paint2_linear_2140_4264" x1="1680.4" y1="-208.528" x2="1557.05" y2="-206.434" gradientUnits="userSpaceOnUse">
<stop stop-color="#995800"/>
<stop offset="1" stop-color="#E68600"/>
</linearGradient>
<linearGradient id="paint3_linear_2140_4264" x1="1748.85" y1="-84.2652" x2="1217.77" y2="-35.9988" gradientUnits="userSpaceOnUse">
<stop stop-color="#995800"/>
<stop offset="1" stop-color="#E68600"/>
</linearGradient>
<clipPath id="clip0_2140_4264">
<rect width="1920" height="935" fill="white"/>
</clipPath>
</defs>
</svg>
