<svg width="1920" height="232" viewBox="0 0 1920 232" fill="none" xmlns="http://www.w3.org/2000/svg">
<rect x="560" y="126" width="1475" height="106" rx="53" fill="url(#paint0_linear_2706_648)"/>
<path d="M630.414 170.214V188H626.593V174.56L622.467 175.817V172.863L630.036 170.214H630.414ZM648.151 177.526V180.688C648.151 181.99 648.004 183.117 647.711 184.069C647.427 185.021 647.012 185.807 646.466 186.425C645.929 187.044 645.286 187.504 644.538 187.805C643.797 188.098 642.975 188.244 642.072 188.244C641.347 188.244 640.672 188.151 640.045 187.963C639.419 187.776 638.853 187.487 638.349 187.097C637.852 186.698 637.425 186.201 637.067 185.607C636.709 185.013 636.432 184.305 636.237 183.483C636.05 182.661 635.956 181.73 635.956 180.688V177.526C635.956 176.208 636.098 175.077 636.383 174.133C636.676 173.189 637.095 172.408 637.641 171.789C638.186 171.171 638.829 170.715 639.569 170.422C640.318 170.129 641.144 169.982 642.047 169.982C642.772 169.982 643.443 170.076 644.062 170.263C644.688 170.45 645.254 170.739 645.758 171.13C646.263 171.521 646.69 172.013 647.04 172.607C647.398 173.201 647.671 173.909 647.858 174.731C648.053 175.545 648.151 176.477 648.151 177.526ZM644.342 181.164V177.026C644.342 176.416 644.306 175.887 644.232 175.439C644.167 174.983 644.07 174.597 643.939 174.279C643.817 173.962 643.663 173.706 643.476 173.51C643.288 173.315 643.073 173.173 642.829 173.083C642.593 172.985 642.332 172.937 642.047 172.937C641.689 172.937 641.368 173.01 641.083 173.156C640.798 173.303 640.558 173.535 640.363 173.852C640.167 174.161 640.017 174.58 639.911 175.109C639.813 175.63 639.765 176.269 639.765 177.026V181.164C639.765 181.774 639.797 182.307 639.862 182.763C639.936 183.219 640.033 183.61 640.155 183.935C640.285 184.252 640.444 184.513 640.631 184.716C640.819 184.912 641.034 185.054 641.278 185.144C641.522 185.233 641.787 185.278 642.072 185.278C642.43 185.278 642.747 185.209 643.024 185.07C643.301 184.924 643.537 184.692 643.732 184.375C643.935 184.049 644.086 183.622 644.184 183.093C644.289 182.564 644.342 181.921 644.342 181.164ZM661.2 170.227V188H657.233V170.227H661.2ZM670.038 188H666.132L666.156 184.924H670.038C670.925 184.924 671.674 184.72 672.284 184.313C672.895 183.898 673.358 183.288 673.676 182.482C673.993 181.669 674.152 180.68 674.152 179.516V178.698C674.152 177.819 674.062 177.046 673.883 176.379C673.704 175.703 673.44 175.138 673.09 174.682C672.74 174.226 672.305 173.885 671.784 173.657C671.271 173.429 670.681 173.315 670.014 173.315H666.059V170.227H670.014C671.218 170.227 672.317 170.43 673.31 170.837C674.311 171.244 675.173 171.826 675.897 172.583C676.63 173.339 677.195 174.235 677.594 175.268C677.993 176.302 678.192 177.453 678.192 178.723V179.516C678.192 180.778 677.993 181.929 677.594 182.971C677.195 184.004 676.63 184.899 675.897 185.656C675.173 186.405 674.315 186.983 673.322 187.39C672.329 187.797 671.234 188 670.038 188ZM668.39 170.227V188H664.411V170.227H668.39ZM692.707 184.924V188H683.246V184.924H692.707ZM684.601 170.227V188H680.622V170.227H684.601ZM691.486 177.38V180.358H683.246V177.38H691.486ZM692.719 170.227V173.315H683.246V170.227H692.719ZM698.896 170.227V188H694.928V170.227H698.896ZM709.711 173.608L705.121 188H700.873L707.453 170.227H710.138L709.711 173.608ZM713.52 188L708.917 173.608L708.441 170.227H711.164L717.768 188H713.52ZM713.324 181.384V184.46H704.059V181.384H713.324ZM728.461 183.312C728.461 183.011 728.416 182.743 728.327 182.507C728.237 182.263 728.074 182.039 727.838 181.835C727.602 181.632 727.269 181.429 726.837 181.225C726.406 181.014 725.84 180.798 725.141 180.578C724.343 180.318 723.582 180.025 722.858 179.699C722.142 179.366 721.503 178.979 720.941 178.54C720.38 178.1 719.936 177.587 719.611 177.001C719.293 176.416 719.135 175.732 719.135 174.951C719.135 174.194 719.302 173.51 719.635 172.9C719.969 172.29 720.437 171.769 721.039 171.337C721.641 170.898 722.349 170.564 723.163 170.336C723.977 170.1 724.872 169.982 725.849 169.982C727.151 169.982 728.294 170.214 729.279 170.678C730.272 171.134 731.045 171.777 731.598 172.607C732.152 173.429 732.428 174.385 732.428 175.476H728.473C728.473 174.995 728.371 174.572 728.168 174.206C727.973 173.832 727.672 173.539 727.265 173.327C726.866 173.116 726.365 173.01 725.763 173.01C725.177 173.01 724.685 173.099 724.286 173.278C723.896 173.449 723.598 173.685 723.395 173.986C723.2 174.287 723.102 174.617 723.102 174.975C723.102 175.26 723.175 175.52 723.322 175.756C723.476 175.984 723.696 176.2 723.981 176.403C724.274 176.599 724.632 176.786 725.055 176.965C725.478 177.144 725.963 177.315 726.508 177.478C727.46 177.779 728.302 178.112 729.035 178.479C729.775 178.845 730.398 179.26 730.902 179.724C731.407 180.188 731.785 180.712 732.038 181.298C732.298 181.884 732.428 182.548 732.428 183.288C732.428 184.077 732.274 184.777 731.964 185.388C731.663 185.998 731.224 186.519 730.646 186.95C730.076 187.373 729.393 187.695 728.595 187.915C727.798 188.134 726.907 188.244 725.922 188.244C725.027 188.244 724.144 188.13 723.273 187.902C722.402 187.666 721.613 187.308 720.905 186.828C720.205 186.348 719.643 185.738 719.22 184.997C718.805 184.248 718.598 183.361 718.598 182.336H722.577C722.577 182.873 722.654 183.329 722.809 183.703C722.964 184.069 723.183 184.366 723.468 184.594C723.761 184.822 724.115 184.985 724.53 185.083C724.945 185.18 725.409 185.229 725.922 185.229C726.516 185.229 726.996 185.148 727.362 184.985C727.737 184.814 728.013 184.582 728.192 184.289C728.371 183.996 728.461 183.671 728.461 183.312ZM746.625 188H742.719L742.743 184.924H746.625C747.512 184.924 748.261 184.72 748.871 184.313C749.481 183.898 749.945 183.288 750.263 182.482C750.58 181.669 750.739 180.68 750.739 179.516V178.698C750.739 177.819 750.649 177.046 750.47 176.379C750.291 175.703 750.027 175.138 749.677 174.682C749.327 174.226 748.891 173.885 748.371 173.657C747.858 173.429 747.268 173.315 746.601 173.315H742.646V170.227H746.601C747.805 170.227 748.904 170.43 749.896 170.837C750.897 171.244 751.76 171.826 752.484 172.583C753.217 173.339 753.782 174.235 754.181 175.268C754.58 176.302 754.779 177.453 754.779 178.723V179.516C754.779 180.778 754.58 181.929 754.181 182.971C753.782 184.004 753.217 184.899 752.484 185.656C751.76 186.405 750.902 186.983 749.909 187.39C748.916 187.797 747.821 188 746.625 188ZM744.977 170.227V188H740.998V170.227H744.977ZM769.293 184.924V188H759.833V184.924H769.293ZM761.188 170.227V188H757.208V170.227H761.188ZM768.073 177.38V180.358H759.833V177.38H768.073ZM769.306 170.227V173.315H759.833V170.227H769.306ZM777.472 170.227H784.296C785.655 170.227 786.831 170.43 787.824 170.837C788.825 171.244 789.594 171.846 790.131 172.644C790.668 173.441 790.937 174.426 790.937 175.598C790.937 176.574 790.778 177.404 790.46 178.088C790.143 178.771 789.695 179.337 789.118 179.785C788.548 180.232 787.881 180.594 787.116 180.871L785.822 181.579H780.011L779.987 178.491H784.308C784.902 178.491 785.395 178.385 785.785 178.173C786.176 177.962 786.469 177.665 786.664 177.282C786.868 176.892 786.969 176.436 786.969 175.915C786.969 175.378 786.868 174.914 786.664 174.523C786.461 174.133 786.16 173.836 785.761 173.632C785.37 173.421 784.882 173.315 784.296 173.315H781.452V188H777.472V170.227ZM787.311 188L783.319 180.102L787.519 180.09L791.571 187.817V188H787.311ZM805.719 184.924V188H796.259V184.924H805.719ZM797.614 170.227V188H793.634V170.227H797.614ZM804.499 177.38V180.358H796.259V177.38H804.499ZM805.731 170.227V173.315H796.259V170.227H805.731ZM822.333 170.227V188H818.366L811.652 176.513V188H807.672V170.227H811.652L818.378 181.713V170.227H822.333ZM830.902 188H826.996L827.021 184.924H830.902C831.789 184.924 832.538 184.72 833.148 184.313C833.759 183.898 834.223 183.288 834.54 182.482C834.857 181.669 835.016 180.68 835.016 179.516V178.698C835.016 177.819 834.927 177.046 834.748 176.379C834.569 175.703 834.304 175.138 833.954 174.682C833.604 174.226 833.169 173.885 832.648 173.657C832.135 173.429 831.545 173.315 830.878 173.315H826.923V170.227H830.878C832.082 170.227 833.181 170.43 834.174 170.837C835.175 171.244 836.037 171.826 836.762 172.583C837.494 173.339 838.06 174.235 838.458 175.268C838.857 176.302 839.057 177.453 839.057 178.723V179.516C839.057 180.778 838.857 181.929 838.458 182.971C838.06 184.004 837.494 184.899 836.762 185.656C836.037 186.405 835.179 186.983 834.186 187.39C833.193 187.797 832.099 188 830.902 188ZM829.254 170.227V188H825.275V170.227H829.254ZM848.603 173.608L844.013 188H839.765L846.344 170.227H849.03L848.603 173.608ZM852.411 188L847.809 173.608L847.333 170.227H850.055L856.659 188H852.411ZM852.216 181.384V184.46H842.951V181.384H852.216ZM876.447 184.924V188H866.986V184.924H876.447ZM868.341 170.227V188H864.362V170.227H868.341ZM875.226 177.38V180.358H866.986V177.38H875.226ZM876.459 170.227V173.315H866.986V170.227H876.459ZM881.769 170.227L884.894 176.281L888.019 170.227H892.56L887.506 179.04L892.694 188H888.117L884.894 181.835L881.684 188H877.094L882.294 179.04L877.228 170.227H881.769ZM902.594 170.227V188H898.627V170.227H902.594ZM908.002 170.227V173.315H893.329V170.227H908.002ZM909.967 170.227H916.791C918.15 170.227 919.326 170.43 920.319 170.837C921.32 171.244 922.089 171.846 922.626 172.644C923.163 173.441 923.432 174.426 923.432 175.598C923.432 176.574 923.273 177.404 922.956 178.088C922.638 178.771 922.191 179.337 921.613 179.785C921.043 180.232 920.376 180.594 919.611 180.871L918.317 181.579H912.506L912.482 178.491H916.803C917.397 178.491 917.89 178.385 918.28 178.173C918.671 177.962 918.964 177.665 919.159 177.282C919.363 176.892 919.464 176.436 919.464 175.915C919.464 175.378 919.363 174.914 919.159 174.523C918.956 174.133 918.655 173.836 918.256 173.632C917.865 173.421 917.377 173.315 916.791 173.315H913.947V188H909.967V170.227ZM919.806 188L915.814 180.102L920.014 180.09L924.066 187.817V188H919.806ZM933.515 173.608L928.925 188H924.677L931.256 170.227H933.942L933.515 173.608ZM937.323 188L932.721 173.608L932.245 170.227H934.967L941.571 188H937.323ZM937.128 181.384V184.46H927.863V181.384H937.128Z" fill="#F0EDE1"/>
<path fill-rule="evenodd" clip-rule="evenodd" d="M968.354 179C968.354 172.568 973.568 167.354 980 167.354C986.432 167.354 991.646 172.568 991.646 179C991.646 185.432 986.432 190.646 980 190.646C973.568 190.646 968.354 185.432 968.354 179Z" fill="#F0EDE1"/>
<path fill-rule="evenodd" clip-rule="evenodd" d="M978.873 176.01C978.497 176.01 978.115 176.351 978.115 176.855C978.115 177.237 978.197 177.375 978.238 177.427C978.287 177.489 978.384 177.566 978.645 177.66L981.908 178.798C982.29 178.934 982.726 179.147 983.052 179.564C983.385 179.991 983.521 180.523 983.521 181.134C983.521 182.464 982.491 183.604 981.137 183.604H979.101C977.622 183.604 976.479 182.361 976.479 180.896C976.479 180.447 976.843 180.083 977.292 180.083C977.74 180.083 978.104 180.447 978.104 180.896C978.104 181.532 978.586 181.979 979.101 181.979H981.137C981.517 181.979 981.896 181.646 981.896 181.134C981.896 180.76 981.815 180.62 981.771 180.564C981.721 180.5 981.621 180.421 981.366 180.33L978.102 179.191C977.726 179.057 977.287 178.848 976.96 178.431C976.625 178.004 976.49 177.47 976.49 176.855C976.49 175.539 977.516 174.385 978.873 174.385H980.91C982.389 174.385 983.532 175.628 983.532 177.093C983.532 177.542 983.168 177.906 982.719 177.906C982.27 177.906 981.907 177.542 981.907 177.093C981.907 176.457 981.424 176.01 980.91 176.01H978.873Z" fill="#995800"/>
<path fill-rule="evenodd" clip-rule="evenodd" d="M980 173.312C980.449 173.312 980.813 173.676 980.813 174.125V183.875C980.813 184.324 980.449 184.688 980 184.688C979.551 184.688 979.188 184.324 979.188 183.875V174.125C979.188 173.676 979.551 173.312 980 173.312Z" fill="#995800"/>
<path d="M1028.41 170.214V188H1024.59V174.56L1020.47 175.817V172.863L1028.04 170.214H1028.41ZM1046.15 177.526V180.688C1046.15 181.99 1046 183.117 1045.71 184.069C1045.43 185.021 1045.01 185.807 1044.47 186.425C1043.93 187.044 1043.29 187.504 1042.54 187.805C1041.8 188.098 1040.98 188.244 1040.07 188.244C1039.35 188.244 1038.67 188.151 1038.05 187.963C1037.42 187.776 1036.85 187.487 1036.35 187.097C1035.85 186.698 1035.42 186.201 1035.07 185.607C1034.71 185.013 1034.43 184.305 1034.24 183.483C1034.05 182.661 1033.96 181.73 1033.96 180.688V177.526C1033.96 176.208 1034.1 175.077 1034.38 174.133C1034.68 173.189 1035.1 172.408 1035.64 171.789C1036.19 171.171 1036.83 170.715 1037.57 170.422C1038.32 170.129 1039.14 169.982 1040.05 169.982C1040.77 169.982 1041.44 170.076 1042.06 170.263C1042.69 170.45 1043.25 170.739 1043.76 171.13C1044.26 171.521 1044.69 172.013 1045.04 172.607C1045.4 173.201 1045.67 173.909 1045.86 174.731C1046.05 175.545 1046.15 176.477 1046.15 177.526ZM1042.34 181.164V177.026C1042.34 176.416 1042.31 175.887 1042.23 175.439C1042.17 174.983 1042.07 174.597 1041.94 174.279C1041.82 173.962 1041.66 173.706 1041.48 173.51C1041.29 173.315 1041.07 173.173 1040.83 173.083C1040.59 172.985 1040.33 172.937 1040.05 172.937C1039.69 172.937 1039.37 173.01 1039.08 173.156C1038.8 173.303 1038.56 173.535 1038.36 173.852C1038.17 174.161 1038.02 174.58 1037.91 175.109C1037.81 175.63 1037.76 176.269 1037.76 177.026V181.164C1037.76 181.774 1037.8 182.307 1037.86 182.763C1037.94 183.219 1038.03 183.61 1038.16 183.935C1038.29 184.252 1038.44 184.513 1038.63 184.716C1038.82 184.912 1039.03 185.054 1039.28 185.144C1039.52 185.233 1039.79 185.278 1040.07 185.278C1040.43 185.278 1040.75 185.209 1041.02 185.07C1041.3 184.924 1041.54 184.692 1041.73 184.375C1041.94 184.049 1042.09 183.622 1042.18 183.093C1042.29 182.564 1042.34 181.921 1042.34 181.164ZM1059.2 170.227V188H1055.23V170.227H1059.2ZM1068.04 188H1064.13L1064.16 184.924H1068.04C1068.93 184.924 1069.67 184.72 1070.28 184.313C1070.89 183.898 1071.36 183.288 1071.68 182.482C1071.99 181.669 1072.15 180.68 1072.15 179.516V178.698C1072.15 177.819 1072.06 177.046 1071.88 176.379C1071.7 175.703 1071.44 175.138 1071.09 174.682C1070.74 174.226 1070.3 173.885 1069.78 173.657C1069.27 173.429 1068.68 173.315 1068.01 173.315H1064.06V170.227H1068.01C1069.22 170.227 1070.32 170.43 1071.31 170.837C1072.31 171.244 1073.17 171.826 1073.9 172.583C1074.63 173.339 1075.2 174.235 1075.59 175.268C1075.99 176.302 1076.19 177.453 1076.19 178.723V179.516C1076.19 180.778 1075.99 181.929 1075.59 182.971C1075.2 184.004 1074.63 184.899 1073.9 185.656C1073.17 186.405 1072.31 186.983 1071.32 187.39C1070.33 187.797 1069.23 188 1068.04 188ZM1066.39 170.227V188H1062.41V170.227H1066.39ZM1090.71 184.924V188H1081.25V184.924H1090.71ZM1082.6 170.227V188H1078.62V170.227H1082.6ZM1089.49 177.38V180.358H1081.25V177.38H1089.49ZM1090.72 170.227V173.315H1081.25V170.227H1090.72ZM1096.9 170.227V188H1092.93V170.227H1096.9ZM1107.71 173.608L1103.12 188H1098.87L1105.45 170.227H1108.14L1107.71 173.608ZM1111.52 188L1106.92 173.608L1106.44 170.227H1109.16L1115.77 188H1111.52ZM1111.32 181.384V184.46H1102.06V181.384H1111.32ZM1126.46 183.312C1126.46 183.011 1126.42 182.743 1126.33 182.507C1126.24 182.263 1126.07 182.039 1125.84 181.835C1125.6 181.632 1125.27 181.429 1124.84 181.225C1124.41 181.014 1123.84 180.798 1123.14 180.578C1122.34 180.318 1121.58 180.025 1120.86 179.699C1120.14 179.366 1119.5 178.979 1118.94 178.54C1118.38 178.1 1117.94 177.587 1117.61 177.001C1117.29 176.416 1117.13 175.732 1117.13 174.951C1117.13 174.194 1117.3 173.51 1117.64 172.9C1117.97 172.29 1118.44 171.769 1119.04 171.337C1119.64 170.898 1120.35 170.564 1121.16 170.336C1121.98 170.1 1122.87 169.982 1123.85 169.982C1125.15 169.982 1126.29 170.214 1127.28 170.678C1128.27 171.134 1129.04 171.777 1129.6 172.607C1130.15 173.429 1130.43 174.385 1130.43 175.476H1126.47C1126.47 174.995 1126.37 174.572 1126.17 174.206C1125.97 173.832 1125.67 173.539 1125.26 173.327C1124.87 173.116 1124.37 173.01 1123.76 173.01C1123.18 173.01 1122.68 173.099 1122.29 173.278C1121.9 173.449 1121.6 173.685 1121.4 173.986C1121.2 174.287 1121.1 174.617 1121.1 174.975C1121.1 175.26 1121.18 175.52 1121.32 175.756C1121.48 175.984 1121.7 176.2 1121.98 176.403C1122.27 176.599 1122.63 176.786 1123.06 176.965C1123.48 177.144 1123.96 177.315 1124.51 177.478C1125.46 177.779 1126.3 178.112 1127.03 178.479C1127.78 178.845 1128.4 179.26 1128.9 179.724C1129.41 180.188 1129.79 180.712 1130.04 181.298C1130.3 181.884 1130.43 182.548 1130.43 183.288C1130.43 184.077 1130.27 184.777 1129.96 185.388C1129.66 185.998 1129.22 186.519 1128.65 186.95C1128.08 187.373 1127.39 187.695 1126.6 187.915C1125.8 188.134 1124.91 188.244 1123.92 188.244C1123.03 188.244 1122.14 188.13 1121.27 187.902C1120.4 187.666 1119.61 187.308 1118.9 186.828C1118.2 186.348 1117.64 185.738 1117.22 184.997C1116.81 184.248 1116.6 183.361 1116.6 182.336H1120.58C1120.58 182.873 1120.65 183.329 1120.81 183.703C1120.96 184.069 1121.18 184.366 1121.47 184.594C1121.76 184.822 1122.12 184.985 1122.53 185.083C1122.95 185.18 1123.41 185.229 1123.92 185.229C1124.52 185.229 1125 185.148 1125.36 184.985C1125.74 184.814 1126.01 184.582 1126.19 184.289C1126.37 183.996 1126.46 183.671 1126.46 183.312ZM1144.62 188H1140.72L1140.74 184.924H1144.62C1145.51 184.924 1146.26 184.72 1146.87 184.313C1147.48 183.898 1147.95 183.288 1148.26 182.482C1148.58 181.669 1148.74 180.68 1148.74 179.516V178.698C1148.74 177.819 1148.65 177.046 1148.47 176.379C1148.29 175.703 1148.03 175.138 1147.68 174.682C1147.33 174.226 1146.89 173.885 1146.37 173.657C1145.86 173.429 1145.27 173.315 1144.6 173.315H1140.65V170.227H1144.6C1145.81 170.227 1146.9 170.43 1147.9 170.837C1148.9 171.244 1149.76 171.826 1150.48 172.583C1151.22 173.339 1151.78 174.235 1152.18 175.268C1152.58 176.302 1152.78 177.453 1152.78 178.723V179.516C1152.78 180.778 1152.58 181.929 1152.18 182.971C1151.78 184.004 1151.22 184.899 1150.48 185.656C1149.76 186.405 1148.9 186.983 1147.91 187.39C1146.92 187.797 1145.82 188 1144.62 188ZM1142.98 170.227V188H1139V170.227H1142.98ZM1167.29 184.924V188H1157.83V184.924H1167.29ZM1159.19 170.227V188H1155.21V170.227H1159.19ZM1166.07 177.38V180.358H1157.83V177.38H1166.07ZM1167.31 170.227V173.315H1157.83V170.227H1167.31ZM1175.47 170.227H1182.3C1183.65 170.227 1184.83 170.43 1185.82 170.837C1186.82 171.244 1187.59 171.846 1188.13 172.644C1188.67 173.441 1188.94 174.426 1188.94 175.598C1188.94 176.574 1188.78 177.404 1188.46 178.088C1188.14 178.771 1187.7 179.337 1187.12 179.785C1186.55 180.232 1185.88 180.594 1185.12 180.871L1183.82 181.579H1178.01L1177.99 178.491H1182.31C1182.9 178.491 1183.39 178.385 1183.79 178.173C1184.18 177.962 1184.47 177.665 1184.66 177.282C1184.87 176.892 1184.97 176.436 1184.97 175.915C1184.97 175.378 1184.87 174.914 1184.66 174.523C1184.46 174.133 1184.16 173.836 1183.76 173.632C1183.37 173.421 1182.88 173.315 1182.3 173.315H1179.45V188H1175.47V170.227ZM1185.31 188L1181.32 180.102L1185.52 180.09L1189.57 187.817V188H1185.31ZM1203.72 184.924V188H1194.26V184.924H1203.72ZM1195.61 170.227V188H1191.63V170.227H1195.61ZM1202.5 177.38V180.358H1194.26V177.38H1202.5ZM1203.73 170.227V173.315H1194.26V170.227H1203.73ZM1220.33 170.227V188H1216.37L1209.65 176.513V188H1205.67V170.227H1209.65L1216.38 181.713V170.227H1220.33ZM1228.9 188H1225L1225.02 184.924H1228.9C1229.79 184.924 1230.54 184.72 1231.15 184.313C1231.76 183.898 1232.22 183.288 1232.54 182.482C1232.86 181.669 1233.02 180.68 1233.02 179.516V178.698C1233.02 177.819 1232.93 177.046 1232.75 176.379C1232.57 175.703 1232.3 175.138 1231.95 174.682C1231.6 174.226 1231.17 173.885 1230.65 173.657C1230.14 173.429 1229.55 173.315 1228.88 173.315H1224.92V170.227H1228.88C1230.08 170.227 1231.18 170.43 1232.17 170.837C1233.17 171.244 1234.04 171.826 1234.76 172.583C1235.49 173.339 1236.06 174.235 1236.46 175.268C1236.86 176.302 1237.06 177.453 1237.06 178.723V179.516C1237.06 180.778 1236.86 181.929 1236.46 182.971C1236.06 184.004 1235.49 184.899 1234.76 185.656C1234.04 186.405 1233.18 186.983 1232.19 187.39C1231.19 187.797 1230.1 188 1228.9 188ZM1227.25 170.227V188H1223.27V170.227H1227.25ZM1246.6 173.608L1242.01 188H1237.76L1244.34 170.227H1247.03L1246.6 173.608ZM1250.41 188L1245.81 173.608L1245.33 170.227H1248.06L1254.66 188H1250.41ZM1250.22 181.384V184.46H1240.95V181.384H1250.22ZM1274.45 184.924V188H1264.99V184.924H1274.45ZM1266.34 170.227V188H1262.36V170.227H1266.34ZM1273.23 177.38V180.358H1264.99V177.38H1273.23ZM1274.46 170.227V173.315H1264.99V170.227H1274.46ZM1279.77 170.227L1282.89 176.281L1286.02 170.227H1290.56L1285.51 179.04L1290.69 188H1286.12L1282.89 181.835L1279.68 188H1275.09L1280.29 179.04L1275.23 170.227H1279.77ZM1300.59 170.227V188H1296.63V170.227H1300.59ZM1306 170.227V173.315H1291.33V170.227H1306ZM1307.97 170.227H1314.79C1316.15 170.227 1317.33 170.43 1318.32 170.837C1319.32 171.244 1320.09 171.846 1320.63 172.644C1321.16 173.441 1321.43 174.426 1321.43 175.598C1321.43 176.574 1321.27 177.404 1320.96 178.088C1320.64 178.771 1320.19 179.337 1319.61 179.785C1319.04 180.232 1318.38 180.594 1317.61 180.871L1316.32 181.579H1310.51L1310.48 178.491H1314.8C1315.4 178.491 1315.89 178.385 1316.28 178.173C1316.67 177.962 1316.96 177.665 1317.16 177.282C1317.36 176.892 1317.46 176.436 1317.46 175.915C1317.46 175.378 1317.36 174.914 1317.16 174.523C1316.96 174.133 1316.65 173.836 1316.26 173.632C1315.87 173.421 1315.38 173.315 1314.79 173.315H1311.95V188H1307.97V170.227ZM1317.81 188L1313.81 180.102L1318.01 180.09L1322.07 187.817V188H1317.81ZM1331.51 173.608L1326.92 188H1322.68L1329.26 170.227H1331.94L1331.51 173.608ZM1335.32 188L1330.72 173.608L1330.25 170.227H1332.97L1339.57 188H1335.32ZM1335.13 181.384V184.46H1325.86V181.384H1335.13Z" fill="#F0EDE1"/>
<path fill-rule="evenodd" clip-rule="evenodd" d="M1366.35 179C1366.35 172.568 1371.57 167.354 1378 167.354C1384.43 167.354 1389.65 172.568 1389.65 179C1389.65 185.432 1384.43 190.646 1378 190.646C1371.57 190.646 1366.35 185.432 1366.35 179Z" fill="#F0EDE1"/>
<path fill-rule="evenodd" clip-rule="evenodd" d="M1376.87 176.01C1376.5 176.01 1376.11 176.351 1376.11 176.855C1376.11 177.237 1376.2 177.375 1376.24 177.427C1376.29 177.489 1376.38 177.566 1376.65 177.66L1379.91 178.798C1380.29 178.934 1380.73 179.147 1381.05 179.564C1381.39 179.991 1381.52 180.523 1381.52 181.134C1381.52 182.464 1380.49 183.604 1379.14 183.604H1377.1C1375.62 183.604 1374.48 182.361 1374.48 180.896C1374.48 180.447 1374.84 180.083 1375.29 180.083C1375.74 180.083 1376.1 180.447 1376.1 180.896C1376.1 181.532 1376.59 181.979 1377.1 181.979H1379.14C1379.52 181.979 1379.9 181.646 1379.9 181.134C1379.9 180.76 1379.81 180.62 1379.77 180.564C1379.72 180.5 1379.62 180.421 1379.37 180.33L1376.1 179.191C1375.73 179.057 1375.29 178.848 1374.96 178.431C1374.62 178.004 1374.49 177.47 1374.49 176.855C1374.49 175.539 1375.52 174.385 1376.87 174.385H1378.91C1380.39 174.385 1381.53 175.628 1381.53 177.093C1381.53 177.542 1381.17 177.906 1380.72 177.906C1380.27 177.906 1379.91 177.542 1379.91 177.093C1379.91 176.457 1379.42 176.01 1378.91 176.01H1376.87Z" fill="#995800"/>
<path fill-rule="evenodd" clip-rule="evenodd" d="M1378 173.312C1378.45 173.312 1378.81 173.676 1378.81 174.125V183.875C1378.81 184.324 1378.45 184.688 1378 184.688C1377.55 184.688 1377.19 184.324 1377.19 183.875V174.125C1377.19 173.676 1377.55 173.312 1378 173.312Z" fill="#995800"/>
<path d="M1426.41 170.214V188H1422.59V174.56L1418.47 175.817V172.863L1426.04 170.214H1426.41ZM1444.15 177.526V180.688C1444.15 181.99 1444 183.117 1443.71 184.069C1443.43 185.021 1443.01 185.807 1442.47 186.425C1441.93 187.044 1441.29 187.504 1440.54 187.805C1439.8 188.098 1438.98 188.244 1438.07 188.244C1437.35 188.244 1436.67 188.151 1436.05 187.963C1435.42 187.776 1434.85 187.487 1434.35 187.097C1433.85 186.698 1433.42 186.201 1433.07 185.607C1432.71 185.013 1432.43 184.305 1432.24 183.483C1432.05 182.661 1431.96 181.73 1431.96 180.688V177.526C1431.96 176.208 1432.1 175.077 1432.38 174.133C1432.68 173.189 1433.1 172.408 1433.64 171.789C1434.19 171.171 1434.83 170.715 1435.57 170.422C1436.32 170.129 1437.14 169.982 1438.05 169.982C1438.77 169.982 1439.44 170.076 1440.06 170.263C1440.69 170.45 1441.25 170.739 1441.76 171.13C1442.26 171.521 1442.69 172.013 1443.04 172.607C1443.4 173.201 1443.67 173.909 1443.86 174.731C1444.05 175.545 1444.15 176.477 1444.15 177.526ZM1440.34 181.164V177.026C1440.34 176.416 1440.31 175.887 1440.23 175.439C1440.17 174.983 1440.07 174.597 1439.94 174.279C1439.82 173.962 1439.66 173.706 1439.48 173.51C1439.29 173.315 1439.07 173.173 1438.83 173.083C1438.59 172.985 1438.33 172.937 1438.05 172.937C1437.69 172.937 1437.37 173.01 1437.08 173.156C1436.8 173.303 1436.56 173.535 1436.36 173.852C1436.17 174.161 1436.02 174.58 1435.91 175.109C1435.81 175.63 1435.76 176.269 1435.76 177.026V181.164C1435.76 181.774 1435.8 182.307 1435.86 182.763C1435.94 183.219 1436.03 183.61 1436.16 183.935C1436.29 184.252 1436.44 184.513 1436.63 184.716C1436.82 184.912 1437.03 185.054 1437.28 185.144C1437.52 185.233 1437.79 185.278 1438.07 185.278C1438.43 185.278 1438.75 185.209 1439.02 185.07C1439.3 184.924 1439.54 184.692 1439.73 184.375C1439.94 184.049 1440.09 183.622 1440.18 183.093C1440.29 182.564 1440.34 181.921 1440.34 181.164ZM1457.2 170.227V188H1453.23V170.227H1457.2ZM1466.04 188H1462.13L1462.16 184.924H1466.04C1466.93 184.924 1467.67 184.72 1468.28 184.313C1468.89 183.898 1469.36 183.288 1469.68 182.482C1469.99 181.669 1470.15 180.68 1470.15 179.516V178.698C1470.15 177.819 1470.06 177.046 1469.88 176.379C1469.7 175.703 1469.44 175.138 1469.09 174.682C1468.74 174.226 1468.3 173.885 1467.78 173.657C1467.27 173.429 1466.68 173.315 1466.01 173.315H1462.06V170.227H1466.01C1467.22 170.227 1468.32 170.43 1469.31 170.837C1470.31 171.244 1471.17 171.826 1471.9 172.583C1472.63 173.339 1473.2 174.235 1473.59 175.268C1473.99 176.302 1474.19 177.453 1474.19 178.723V179.516C1474.19 180.778 1473.99 181.929 1473.59 182.971C1473.2 184.004 1472.63 184.899 1471.9 185.656C1471.17 186.405 1470.31 186.983 1469.32 187.39C1468.33 187.797 1467.23 188 1466.04 188ZM1464.39 170.227V188H1460.41V170.227H1464.39ZM1488.71 184.924V188H1479.25V184.924H1488.71ZM1480.6 170.227V188H1476.62V170.227H1480.6ZM1487.49 177.38V180.358H1479.25V177.38H1487.49ZM1488.72 170.227V173.315H1479.25V170.227H1488.72ZM1494.9 170.227V188H1490.93V170.227H1494.9ZM1505.71 173.608L1501.12 188H1496.87L1503.45 170.227H1506.14L1505.71 173.608ZM1509.52 188L1504.92 173.608L1504.44 170.227H1507.16L1513.77 188H1509.52ZM1509.32 181.384V184.46H1500.06V181.384H1509.32ZM1524.46 183.312C1524.46 183.011 1524.42 182.743 1524.33 182.507C1524.24 182.263 1524.07 182.039 1523.84 181.835C1523.6 181.632 1523.27 181.429 1522.84 181.225C1522.41 181.014 1521.84 180.798 1521.14 180.578C1520.34 180.318 1519.58 180.025 1518.86 179.699C1518.14 179.366 1517.5 178.979 1516.94 178.54C1516.38 178.1 1515.94 177.587 1515.61 177.001C1515.29 176.416 1515.13 175.732 1515.13 174.951C1515.13 174.194 1515.3 173.51 1515.64 172.9C1515.97 172.29 1516.44 171.769 1517.04 171.337C1517.64 170.898 1518.35 170.564 1519.16 170.336C1519.98 170.1 1520.87 169.982 1521.85 169.982C1523.15 169.982 1524.29 170.214 1525.28 170.678C1526.27 171.134 1527.04 171.777 1527.6 172.607C1528.15 173.429 1528.43 174.385 1528.43 175.476H1524.47C1524.47 174.995 1524.37 174.572 1524.17 174.206C1523.97 173.832 1523.67 173.539 1523.26 173.327C1522.87 173.116 1522.37 173.01 1521.76 173.01C1521.18 173.01 1520.68 173.099 1520.29 173.278C1519.9 173.449 1519.6 173.685 1519.4 173.986C1519.2 174.287 1519.1 174.617 1519.1 174.975C1519.1 175.26 1519.18 175.52 1519.32 175.756C1519.48 175.984 1519.7 176.2 1519.98 176.403C1520.27 176.599 1520.63 176.786 1521.06 176.965C1521.48 177.144 1521.96 177.315 1522.51 177.478C1523.46 177.779 1524.3 178.112 1525.03 178.479C1525.78 178.845 1526.4 179.26 1526.9 179.724C1527.41 180.188 1527.79 180.712 1528.04 181.298C1528.3 181.884 1528.43 182.548 1528.43 183.288C1528.43 184.077 1528.27 184.777 1527.96 185.388C1527.66 185.998 1527.22 186.519 1526.65 186.95C1526.08 187.373 1525.39 187.695 1524.6 187.915C1523.8 188.134 1522.91 188.244 1521.92 188.244C1521.03 188.244 1520.14 188.13 1519.27 187.902C1518.4 187.666 1517.61 187.308 1516.9 186.828C1516.2 186.348 1515.64 185.738 1515.22 184.997C1514.81 184.248 1514.6 183.361 1514.6 182.336H1518.58C1518.58 182.873 1518.65 183.329 1518.81 183.703C1518.96 184.069 1519.18 184.366 1519.47 184.594C1519.76 184.822 1520.12 184.985 1520.53 185.083C1520.95 185.18 1521.41 185.229 1521.92 185.229C1522.52 185.229 1523 185.148 1523.36 184.985C1523.74 184.814 1524.01 184.582 1524.19 184.289C1524.37 183.996 1524.46 183.671 1524.46 183.312ZM1542.62 188H1538.72L1538.74 184.924H1542.62C1543.51 184.924 1544.26 184.72 1544.87 184.313C1545.48 183.898 1545.95 183.288 1546.26 182.482C1546.58 181.669 1546.74 180.68 1546.74 179.516V178.698C1546.74 177.819 1546.65 177.046 1546.47 176.379C1546.29 175.703 1546.03 175.138 1545.68 174.682C1545.33 174.226 1544.89 173.885 1544.37 173.657C1543.86 173.429 1543.27 173.315 1542.6 173.315H1538.65V170.227H1542.6C1543.81 170.227 1544.9 170.43 1545.9 170.837C1546.9 171.244 1547.76 171.826 1548.48 172.583C1549.22 173.339 1549.78 174.235 1550.18 175.268C1550.58 176.302 1550.78 177.453 1550.78 178.723V179.516C1550.78 180.778 1550.58 181.929 1550.18 182.971C1549.78 184.004 1549.22 184.899 1548.48 185.656C1547.76 186.405 1546.9 186.983 1545.91 187.39C1544.92 187.797 1543.82 188 1542.62 188ZM1540.98 170.227V188H1537V170.227H1540.98ZM1565.29 184.924V188H1555.83V184.924H1565.29ZM1557.19 170.227V188H1553.21V170.227H1557.19ZM1564.07 177.38V180.358H1555.83V177.38H1564.07ZM1565.31 170.227V173.315H1555.83V170.227H1565.31ZM1573.47 170.227H1580.3C1581.65 170.227 1582.83 170.43 1583.82 170.837C1584.82 171.244 1585.59 171.846 1586.13 172.644C1586.67 173.441 1586.94 174.426 1586.94 175.598C1586.94 176.574 1586.78 177.404 1586.46 178.088C1586.14 178.771 1585.7 179.337 1585.12 179.785C1584.55 180.232 1583.88 180.594 1583.12 180.871L1581.82 181.579H1576.01L1575.99 178.491H1580.31C1580.9 178.491 1581.39 178.385 1581.79 178.173C1582.18 177.962 1582.47 177.665 1582.66 177.282C1582.87 176.892 1582.97 176.436 1582.97 175.915C1582.97 175.378 1582.87 174.914 1582.66 174.523C1582.46 174.133 1582.16 173.836 1581.76 173.632C1581.37 173.421 1580.88 173.315 1580.3 173.315H1577.45V188H1573.47V170.227ZM1583.31 188L1579.32 180.102L1583.52 180.09L1587.57 187.817V188H1583.31ZM1601.72 184.924V188H1592.26V184.924H1601.72ZM1593.61 170.227V188H1589.63V170.227H1593.61ZM1600.5 177.38V180.358H1592.26V177.38H1600.5ZM1601.73 170.227V173.315H1592.26V170.227H1601.73ZM1618.33 170.227V188H1614.37L1607.65 176.513V188H1603.67V170.227H1607.65L1614.38 181.713V170.227H1618.33ZM1626.9 188H1623L1623.02 184.924H1626.9C1627.79 184.924 1628.54 184.72 1629.15 184.313C1629.76 183.898 1630.22 183.288 1630.54 182.482C1630.86 181.669 1631.02 180.68 1631.02 179.516V178.698C1631.02 177.819 1630.93 177.046 1630.75 176.379C1630.57 175.703 1630.3 175.138 1629.95 174.682C1629.6 174.226 1629.17 173.885 1628.65 173.657C1628.14 173.429 1627.55 173.315 1626.88 173.315H1622.92V170.227H1626.88C1628.08 170.227 1629.18 170.43 1630.17 170.837C1631.17 171.244 1632.04 171.826 1632.76 172.583C1633.49 173.339 1634.06 174.235 1634.46 175.268C1634.86 176.302 1635.06 177.453 1635.06 178.723V179.516C1635.06 180.778 1634.86 181.929 1634.46 182.971C1634.06 184.004 1633.49 184.899 1632.76 185.656C1632.04 186.405 1631.18 186.983 1630.19 187.39C1629.19 187.797 1628.1 188 1626.9 188ZM1625.25 170.227V188H1621.27V170.227H1625.25ZM1644.6 173.608L1640.01 188H1635.76L1642.34 170.227H1645.03L1644.6 173.608ZM1648.41 188L1643.81 173.608L1643.33 170.227H1646.06L1652.66 188H1648.41ZM1648.22 181.384V184.46H1638.95V181.384H1648.22ZM1672.45 184.924V188H1662.99V184.924H1672.45ZM1664.34 170.227V188H1660.36V170.227H1664.34ZM1671.23 177.38V180.358H1662.99V177.38H1671.23ZM1672.46 170.227V173.315H1662.99V170.227H1672.46ZM1677.77 170.227L1680.89 176.281L1684.02 170.227H1688.56L1683.51 179.04L1688.69 188H1684.12L1680.89 181.835L1677.68 188H1673.09L1678.29 179.04L1673.23 170.227H1677.77ZM1698.59 170.227V188H1694.63V170.227H1698.59ZM1704 170.227V173.315H1689.33V170.227H1704ZM1705.97 170.227H1712.79C1714.15 170.227 1715.33 170.43 1716.32 170.837C1717.32 171.244 1718.09 171.846 1718.63 172.644C1719.16 173.441 1719.43 174.426 1719.43 175.598C1719.43 176.574 1719.27 177.404 1718.96 178.088C1718.64 178.771 1718.19 179.337 1717.61 179.785C1717.04 180.232 1716.38 180.594 1715.61 180.871L1714.32 181.579H1708.51L1708.48 178.491H1712.8C1713.4 178.491 1713.89 178.385 1714.28 178.173C1714.67 177.962 1714.96 177.665 1715.16 177.282C1715.36 176.892 1715.46 176.436 1715.46 175.915C1715.46 175.378 1715.36 174.914 1715.16 174.523C1714.96 174.133 1714.65 173.836 1714.26 173.632C1713.87 173.421 1713.38 173.315 1712.79 173.315H1709.95V188H1705.97V170.227ZM1715.81 188L1711.81 180.102L1716.01 180.09L1720.07 187.817V188H1715.81ZM1729.51 173.608L1724.92 188H1720.68L1727.26 170.227H1729.94L1729.51 173.608ZM1733.32 188L1728.72 173.608L1728.25 170.227H1730.97L1737.57 188H1733.32ZM1733.13 181.384V184.46H1723.86V181.384H1733.13Z" fill="#F0EDE1"/>
<path fill-rule="evenodd" clip-rule="evenodd" d="M1764.35 179C1764.35 172.568 1769.57 167.354 1776 167.354C1782.43 167.354 1787.65 172.568 1787.65 179C1787.65 185.432 1782.43 190.646 1776 190.646C1769.57 190.646 1764.35 185.432 1764.35 179Z" fill="#F0EDE1"/>
<path fill-rule="evenodd" clip-rule="evenodd" d="M1774.87 176.01C1774.5 176.01 1774.11 176.351 1774.11 176.855C1774.11 177.237 1774.2 177.375 1774.24 177.427C1774.29 177.489 1774.38 177.566 1774.65 177.66L1777.91 178.798C1778.29 178.934 1778.73 179.147 1779.05 179.564C1779.39 179.991 1779.52 180.523 1779.52 181.134C1779.52 182.464 1778.49 183.604 1777.14 183.604H1775.1C1773.62 183.604 1772.48 182.361 1772.48 180.896C1772.48 180.447 1772.84 180.083 1773.29 180.083C1773.74 180.083 1774.1 180.447 1774.1 180.896C1774.1 181.532 1774.59 181.979 1775.1 181.979H1777.14C1777.52 181.979 1777.9 181.646 1777.9 181.134C1777.9 180.76 1777.81 180.62 1777.77 180.564C1777.72 180.5 1777.62 180.421 1777.37 180.33L1774.1 179.191C1773.73 179.057 1773.29 178.848 1772.96 178.431C1772.62 178.004 1772.49 177.47 1772.49 176.855C1772.49 175.539 1773.52 174.385 1774.87 174.385H1776.91C1778.39 174.385 1779.53 175.628 1779.53 177.093C1779.53 177.542 1779.17 177.906 1778.72 177.906C1778.27 177.906 1777.91 177.542 1777.91 177.093C1777.91 176.457 1777.42 176.01 1776.91 176.01H1774.87Z" fill="#995800"/>
<path fill-rule="evenodd" clip-rule="evenodd" d="M1776 173.312C1776.45 173.312 1776.81 173.676 1776.81 174.125V183.875C1776.81 184.324 1776.45 184.688 1776 184.688C1775.55 184.688 1775.19 184.324 1775.19 183.875V174.125C1775.19 173.676 1775.55 173.312 1776 173.312Z" fill="#995800"/>
<path d="M1824.41 170.214V188H1820.59V174.56L1816.47 175.817V172.863L1824.04 170.214H1824.41ZM1842.15 177.526V180.688C1842.15 181.99 1842 183.117 1841.71 184.069C1841.43 185.021 1841.01 185.807 1840.47 186.425C1839.93 187.044 1839.29 187.504 1838.54 187.805C1837.8 188.098 1836.98 188.244 1836.07 188.244C1835.35 188.244 1834.67 188.151 1834.05 187.963C1833.42 187.776 1832.85 187.487 1832.35 187.097C1831.85 186.698 1831.42 186.201 1831.07 185.607C1830.71 185.013 1830.43 184.305 1830.24 183.483C1830.05 182.661 1829.96 181.73 1829.96 180.688V177.526C1829.96 176.208 1830.1 175.077 1830.38 174.133C1830.68 173.189 1831.1 172.408 1831.64 171.789C1832.19 171.171 1832.83 170.715 1833.57 170.422C1834.32 170.129 1835.14 169.982 1836.05 169.982C1836.77 169.982 1837.44 170.076 1838.06 170.263C1838.69 170.45 1839.25 170.739 1839.76 171.13C1840.26 171.521 1840.69 172.013 1841.04 172.607C1841.4 173.201 1841.67 173.909 1841.86 174.731C1842.05 175.545 1842.15 176.477 1842.15 177.526ZM1838.34 181.164V177.026C1838.34 176.416 1838.31 175.887 1838.23 175.439C1838.17 174.983 1838.07 174.597 1837.94 174.279C1837.82 173.962 1837.66 173.706 1837.48 173.51C1837.29 173.315 1837.07 173.173 1836.83 173.083C1836.59 172.985 1836.33 172.937 1836.05 172.937C1835.69 172.937 1835.37 173.01 1835.08 173.156C1834.8 173.303 1834.56 173.535 1834.36 173.852C1834.17 174.161 1834.02 174.58 1833.91 175.109C1833.81 175.63 1833.76 176.269 1833.76 177.026V181.164C1833.76 181.774 1833.8 182.307 1833.86 182.763C1833.94 183.219 1834.03 183.61 1834.16 183.935C1834.29 184.252 1834.44 184.513 1834.63 184.716C1834.82 184.912 1835.03 185.054 1835.28 185.144C1835.52 185.233 1835.79 185.278 1836.07 185.278C1836.43 185.278 1836.75 185.209 1837.02 185.07C1837.3 184.924 1837.54 184.692 1837.73 184.375C1837.94 184.049 1838.09 183.622 1838.18 183.093C1838.29 182.564 1838.34 181.921 1838.34 181.164ZM1855.2 170.227V188H1851.23V170.227H1855.2ZM1864.04 188H1860.13L1860.16 184.924H1864.04C1864.93 184.924 1865.67 184.72 1866.28 184.313C1866.89 183.898 1867.36 183.288 1867.68 182.482C1867.99 181.669 1868.15 180.68 1868.15 179.516V178.698C1868.15 177.819 1868.06 177.046 1867.88 176.379C1867.7 175.703 1867.44 175.138 1867.09 174.682C1866.74 174.226 1866.3 173.885 1865.78 173.657C1865.27 173.429 1864.68 173.315 1864.01 173.315H1860.06V170.227H1864.01C1865.22 170.227 1866.32 170.43 1867.31 170.837C1868.31 171.244 1869.17 171.826 1869.9 172.583C1870.63 173.339 1871.2 174.235 1871.59 175.268C1871.99 176.302 1872.19 177.453 1872.19 178.723V179.516C1872.19 180.778 1871.99 181.929 1871.59 182.971C1871.2 184.004 1870.63 184.899 1869.9 185.656C1869.17 186.405 1868.31 186.983 1867.32 187.39C1866.33 187.797 1865.23 188 1864.04 188ZM1862.39 170.227V188H1858.41V170.227H1862.39ZM1886.71 184.924V188H1877.25V184.924H1886.71ZM1878.6 170.227V188H1874.62V170.227H1878.6ZM1885.49 177.38V180.358H1877.25V177.38H1885.49ZM1886.72 170.227V173.315H1877.25V170.227H1886.72ZM1892.9 170.227V188H1888.93V170.227H1892.9ZM1903.71 173.608L1899.12 188H1894.87L1901.45 170.227H1904.14L1903.71 173.608ZM1907.52 188L1902.92 173.608L1902.44 170.227H1905.16L1911.77 188H1907.52ZM1907.32 181.384V184.46H1898.06V181.384H1907.32ZM1922.46 183.312C1922.46 183.011 1922.42 182.743 1922.33 182.507C1922.24 182.263 1922.07 182.039 1921.84 181.835C1921.6 181.632 1921.27 181.429 1920.84 181.225C1920.41 181.014 1919.84 180.798 1919.14 180.578C1918.34 180.318 1917.58 180.025 1916.86 179.699C1916.14 179.366 1915.5 178.979 1914.94 178.54C1914.38 178.1 1913.94 177.587 1913.61 177.001C1913.29 176.416 1913.13 175.732 1913.13 174.951C1913.13 174.194 1913.3 173.51 1913.64 172.9C1913.97 172.29 1914.44 171.769 1915.04 171.337C1915.64 170.898 1916.35 170.564 1917.16 170.336C1917.98 170.1 1918.87 169.982 1919.85 169.982C1921.15 169.982 1922.29 170.214 1923.28 170.678C1924.27 171.134 1925.04 171.777 1925.6 172.607C1926.15 173.429 1926.43 174.385 1926.43 175.476H1922.47C1922.47 174.995 1922.37 174.572 1922.17 174.206C1921.97 173.832 1921.67 173.539 1921.26 173.327C1920.87 173.116 1920.37 173.01 1919.76 173.01C1919.18 173.01 1918.68 173.099 1918.29 173.278C1917.9 173.449 1917.6 173.685 1917.4 173.986C1917.2 174.287 1917.1 174.617 1917.1 174.975C1917.1 175.26 1917.18 175.52 1917.32 175.756C1917.48 175.984 1917.7 176.2 1917.98 176.403C1918.27 176.599 1918.63 176.786 1919.06 176.965C1919.48 177.144 1919.96 177.315 1920.51 177.478C1921.46 177.779 1922.3 178.112 1923.03 178.479C1923.78 178.845 1924.4 179.26 1924.9 179.724C1925.41 180.188 1925.79 180.712 1926.04 181.298C1926.3 181.884 1926.43 182.548 1926.43 183.288C1926.43 184.077 1926.27 184.777 1925.96 185.388C1925.66 185.998 1925.22 186.519 1924.65 186.95C1924.08 187.373 1923.39 187.695 1922.6 187.915C1921.8 188.134 1920.91 188.244 1919.92 188.244C1919.03 188.244 1918.14 188.13 1917.27 187.902C1916.4 187.666 1915.61 187.308 1914.9 186.828C1914.2 186.348 1913.64 185.738 1913.22 184.997C1912.81 184.248 1912.6 183.361 1912.6 182.336H1916.58C1916.58 182.873 1916.65 183.329 1916.81 183.703C1916.96 184.069 1917.18 184.366 1917.47 184.594C1917.76 184.822 1918.12 184.985 1918.53 185.083C1918.95 185.18 1919.41 185.229 1919.92 185.229C1920.52 185.229 1921 185.148 1921.36 184.985C1921.74 184.814 1922.01 184.582 1922.19 184.289C1922.37 183.996 1922.46 183.671 1922.46 183.312ZM1940.62 188H1936.72L1936.74 184.924H1940.62C1941.51 184.924 1942.26 184.72 1942.87 184.313C1943.48 183.898 1943.95 183.288 1944.26 182.482C1944.58 181.669 1944.74 180.68 1944.74 179.516V178.698C1944.74 177.819 1944.65 177.046 1944.47 176.379C1944.29 175.703 1944.03 175.138 1943.68 174.682C1943.33 174.226 1942.89 173.885 1942.37 173.657C1941.86 173.429 1941.27 173.315 1940.6 173.315H1936.65V170.227H1940.6C1941.81 170.227 1942.9 170.43 1943.9 170.837C1944.9 171.244 1945.76 171.826 1946.48 172.583C1947.22 173.339 1947.78 174.235 1948.18 175.268C1948.58 176.302 1948.78 177.453 1948.78 178.723V179.516C1948.78 180.778 1948.58 181.929 1948.18 182.971C1947.78 184.004 1947.22 184.899 1946.48 185.656C1945.76 186.405 1944.9 186.983 1943.91 187.39C1942.92 187.797 1941.82 188 1940.62 188ZM1938.98 170.227V188H1935V170.227H1938.98ZM1963.29 184.924V188H1953.83V184.924H1963.29ZM1955.19 170.227V188H1951.21V170.227H1955.19ZM1962.07 177.38V180.358H1953.83V177.38H1962.07ZM1963.31 170.227V173.315H1953.83V170.227H1963.31ZM1971.47 170.227H1978.3C1979.65 170.227 1980.83 170.43 1981.82 170.837C1982.82 171.244 1983.59 171.846 1984.13 172.644C1984.67 173.441 1984.94 174.426 1984.94 175.598C1984.94 176.574 1984.78 177.404 1984.46 178.088C1984.14 178.771 1983.7 179.337 1983.12 179.785C1982.55 180.232 1981.88 180.594 1981.12 180.871L1979.82 181.579H1974.01L1973.99 178.491H1978.31C1978.9 178.491 1979.39 178.385 1979.79 178.173C1980.18 177.962 1980.47 177.665 1980.66 177.282C1980.87 176.892 1980.97 176.436 1980.97 175.915C1980.97 175.378 1980.87 174.914 1980.66 174.523C1980.46 174.133 1980.16 173.836 1979.76 173.632C1979.37 173.421 1978.88 173.315 1978.3 173.315H1975.45V188H1971.47V170.227ZM1981.31 188L1977.32 180.102L1981.52 180.09L1985.57 187.817V188H1981.31ZM1999.72 184.924V188H1990.26V184.924H1999.72ZM1991.61 170.227V188H1987.63V170.227H1991.61ZM1998.5 177.38V180.358H1990.26V177.38H1998.5ZM1999.73 170.227V173.315H1990.26V170.227H1999.73ZM2016.33 170.227V188H2012.37L2005.65 176.513V188H2001.67V170.227H2005.65L2012.38 181.713V170.227H2016.33ZM2024.9 188H2021L2021.02 184.924H2024.9C2025.79 184.924 2026.54 184.72 2027.15 184.313C2027.76 183.898 2028.22 183.288 2028.54 182.482C2028.86 181.669 2029.02 180.68 2029.02 179.516V178.698C2029.02 177.819 2028.93 177.046 2028.75 176.379C2028.57 175.703 2028.3 175.138 2027.95 174.682C2027.6 174.226 2027.17 173.885 2026.65 173.657C2026.14 173.429 2025.55 173.315 2024.88 173.315H2020.92V170.227H2024.88C2026.08 170.227 2027.18 170.43 2028.17 170.837C2029.17 171.244 2030.04 171.826 2030.76 172.583C2031.49 173.339 2032.06 174.235 2032.46 175.268C2032.86 176.302 2033.06 177.453 2033.06 178.723V179.516C2033.06 180.778 2032.86 181.929 2032.46 182.971C2032.06 184.004 2031.49 184.899 2030.76 185.656C2030.04 186.405 2029.18 186.983 2028.19 187.39C2027.19 187.797 2026.1 188 2024.9 188ZM2023.25 170.227V188H2019.27V170.227H2023.25ZM2042.6 173.608L2038.01 188H2033.76L2040.34 170.227H2043.03L2042.6 173.608ZM2046.41 188L2041.81 173.608L2041.33 170.227H2044.06L2050.66 188H2046.41ZM2046.22 181.384V184.46H2036.95V181.384H2046.22ZM2070.45 184.924V188H2060.99V184.924H2070.45ZM2062.34 170.227V188H2058.36V170.227H2062.34ZM2069.23 177.38V180.358H2060.99V177.38H2069.23ZM2070.46 170.227V173.315H2060.99V170.227H2070.46ZM2075.77 170.227L2078.89 176.281L2082.02 170.227H2086.56L2081.51 179.04L2086.69 188H2082.12L2078.89 181.835L2075.68 188H2071.09L2076.29 179.04L2071.23 170.227H2075.77ZM2096.59 170.227V188H2092.63V170.227H2096.59ZM2102 170.227V173.315H2087.33V170.227H2102ZM2103.97 170.227H2110.79C2112.15 170.227 2113.33 170.43 2114.32 170.837C2115.32 171.244 2116.09 171.846 2116.63 172.644C2117.16 173.441 2117.43 174.426 2117.43 175.598C2117.43 176.574 2117.27 177.404 2116.96 178.088C2116.64 178.771 2116.19 179.337 2115.61 179.785C2115.04 180.232 2114.38 180.594 2113.61 180.871L2112.32 181.579H2106.51L2106.48 178.491H2110.8C2111.4 178.491 2111.89 178.385 2112.28 178.173C2112.67 177.962 2112.96 177.665 2113.16 177.282C2113.36 176.892 2113.46 176.436 2113.46 175.915C2113.46 175.378 2113.36 174.914 2113.16 174.523C2112.96 174.133 2112.65 173.836 2112.26 173.632C2111.87 173.421 2111.38 173.315 2110.79 173.315H2107.95V188H2103.97V170.227ZM2113.81 188L2109.81 180.102L2114.01 180.09L2118.07 187.817V188H2113.81ZM2127.51 173.608L2122.92 188H2118.68L2125.26 170.227H2127.94L2127.51 173.608ZM2131.32 188L2126.72 173.608L2126.25 170.227H2128.97L2135.57 188H2131.32ZM2131.13 181.384V184.46H2121.86V181.384H2131.13Z" fill="#F0EDE1"/>
<rect x="-133" width="1493" height="106" rx="53" fill="#383838"/>
<rect x="-133" width="1493" height="106" rx="53" fill="url(#paint1_linear_2706_648)"/>
<path d="M-205.586 44.2144V62H-209.407V48.5601L-213.533 49.8174V46.8633L-205.964 44.2144H-205.586ZM-187.849 51.5264V54.688C-187.849 55.9901 -187.996 57.1172 -188.289 58.0693C-188.573 59.0215 -188.988 59.8068 -189.534 60.4253C-190.071 61.0438 -190.714 61.5036 -191.462 61.8047C-192.203 62.0977 -193.025 62.2441 -193.928 62.2441C-194.653 62.2441 -195.328 62.1506 -195.955 61.9634C-196.581 61.7762 -197.147 61.4873 -197.651 61.0967C-198.148 60.6979 -198.575 60.2015 -198.933 59.6074C-199.291 59.0133 -199.568 58.3053 -199.763 57.4834C-199.95 56.6615 -200.044 55.7297 -200.044 54.688V51.5264C-200.044 50.208 -199.902 49.0768 -199.617 48.1328C-199.324 47.1888 -198.905 46.4076 -198.359 45.7891C-197.814 45.1706 -197.171 44.7148 -196.431 44.4219C-195.682 44.1289 -194.856 43.9824 -193.953 43.9824C-193.228 43.9824 -192.557 44.076 -191.938 44.2632C-191.312 44.4504 -190.746 44.7393 -190.242 45.1299C-189.737 45.5205 -189.31 46.0129 -188.96 46.6069C-188.602 47.201 -188.329 47.909 -188.142 48.731C-187.947 49.5448 -187.849 50.4766 -187.849 51.5264ZM-191.658 55.1641V51.0259C-191.658 50.4155 -191.694 49.8866 -191.768 49.439C-191.833 48.9832 -191.93 48.5967 -192.061 48.2793C-192.183 47.9619 -192.337 47.7056 -192.524 47.5103C-192.712 47.3149 -192.927 47.1725 -193.171 47.083C-193.407 46.9854 -193.668 46.9365 -193.953 46.9365C-194.311 46.9365 -194.632 47.0098 -194.917 47.1562C-195.202 47.3027 -195.442 47.5347 -195.637 47.8521C-195.833 48.1613 -195.983 48.5804 -196.089 49.1094C-196.187 49.6302 -196.235 50.269 -196.235 51.0259V55.1641C-196.235 55.7744 -196.203 56.3075 -196.138 56.7632C-196.064 57.2189 -195.967 57.6095 -195.845 57.9351C-195.715 58.2524 -195.556 58.5129 -195.369 58.7163C-195.181 58.9116 -194.966 59.054 -194.722 59.1436C-194.478 59.2331 -194.213 59.2778 -193.928 59.2778C-193.57 59.2778 -193.253 59.2087 -192.976 59.0703C-192.699 58.9238 -192.463 58.6919 -192.268 58.3745C-192.065 58.049 -191.914 57.6217 -191.816 57.0928C-191.711 56.5638 -191.658 55.9209 -191.658 55.1641ZM-174.8 44.2266V62H-178.767V44.2266H-174.8ZM-165.962 62H-169.868L-169.844 58.9238H-165.962C-165.075 58.9238 -164.326 58.7204 -163.716 58.3135C-163.105 57.8984 -162.642 57.2881 -162.324 56.4824C-162.007 55.6686 -161.848 54.6799 -161.848 53.5161V52.6982C-161.848 51.8193 -161.938 51.0462 -162.117 50.3789C-162.296 49.7035 -162.56 49.1379 -162.91 48.6821C-163.26 48.2264 -163.695 47.8846 -164.216 47.6567C-164.729 47.4289 -165.319 47.3149 -165.986 47.3149H-169.941V44.2266H-165.986C-164.782 44.2266 -163.683 44.43 -162.69 44.8369C-161.689 45.2438 -160.827 45.8257 -160.103 46.5825C-159.37 47.3394 -158.805 48.2345 -158.406 49.2681C-158.007 50.3016 -157.808 51.4531 -157.808 52.7227V53.5161C-157.808 54.7775 -158.007 55.929 -158.406 56.9707C-158.805 58.0042 -159.37 58.8994 -160.103 59.6562C-160.827 60.4049 -161.685 60.9827 -162.678 61.3896C-163.671 61.7965 -164.766 62 -165.962 62ZM-167.61 44.2266V62H-171.589V44.2266H-167.61ZM-143.293 58.9238V62H-152.754V58.9238H-143.293ZM-151.399 44.2266V62H-155.378V44.2266H-151.399ZM-144.514 51.3799V54.3584H-152.754V51.3799H-144.514ZM-143.281 44.2266V47.3149H-152.754V44.2266H-143.281ZM-137.104 44.2266V62H-141.072V44.2266H-137.104ZM-126.289 47.6079L-130.879 62H-135.127L-128.547 44.2266H-125.862L-126.289 47.6079ZM-122.48 62L-127.083 47.6079L-127.559 44.2266H-124.836L-118.232 62H-122.48ZM-122.676 55.3838V58.46H-131.941V55.3838H-122.676ZM-107.539 57.3125C-107.539 57.0114 -107.584 56.7428 -107.673 56.5068C-107.763 56.2627 -107.926 56.0389 -108.162 55.8354C-108.398 55.632 -108.731 55.4285 -109.163 55.2251C-109.594 55.0135 -110.16 54.7979 -110.859 54.5781C-111.657 54.3177 -112.418 54.0247 -113.142 53.6992C-113.858 53.3656 -114.497 52.979 -115.059 52.5396C-115.62 52.1001 -116.064 51.5874 -116.389 51.0015C-116.707 50.4155 -116.865 49.7319 -116.865 48.9507C-116.865 48.1938 -116.698 47.5103 -116.365 46.8999C-116.031 46.2896 -115.563 45.7687 -114.961 45.3374C-114.359 44.8979 -113.651 44.5643 -112.837 44.3364C-112.023 44.1004 -111.128 43.9824 -110.151 43.9824C-108.849 43.9824 -107.706 44.2144 -106.721 44.6782C-105.728 45.134 -104.955 45.7769 -104.402 46.6069C-103.848 47.4289 -103.572 48.3851 -103.572 49.4756H-107.527C-107.527 48.9954 -107.629 48.5723 -107.832 48.2061C-108.027 47.8317 -108.328 47.5387 -108.735 47.3271C-109.134 47.1156 -109.635 47.0098 -110.237 47.0098C-110.823 47.0098 -111.315 47.0993 -111.714 47.2783C-112.104 47.4492 -112.402 47.6852 -112.605 47.9863C-112.8 48.2874 -112.898 48.617 -112.898 48.9751C-112.898 49.2599 -112.825 49.5203 -112.678 49.7563C-112.524 49.9842 -112.304 50.1999 -112.019 50.4033C-111.726 50.5986 -111.368 50.7858 -110.945 50.9648C-110.522 51.1439 -110.037 51.3148 -109.492 51.4775C-108.54 51.7786 -107.698 52.1123 -106.965 52.4785C-106.225 52.8447 -105.602 53.2598 -105.098 53.7236C-104.593 54.1875 -104.215 54.7124 -103.962 55.2983C-103.702 55.8843 -103.572 56.5475 -103.572 57.2881C-103.572 58.0775 -103.726 58.7773 -104.036 59.3877C-104.337 59.998 -104.776 60.5189 -105.354 60.9502C-105.924 61.3734 -106.607 61.6948 -107.405 61.9146C-108.202 62.1343 -109.093 62.2441 -110.078 62.2441C-110.973 62.2441 -111.856 62.1302 -112.727 61.9023C-113.598 61.6663 -114.387 61.3083 -115.095 60.8281C-115.795 60.348 -116.357 59.7376 -116.78 58.9971C-117.195 58.2484 -117.402 57.3613 -117.402 56.3359H-113.423C-113.423 56.873 -113.346 57.3288 -113.191 57.7031C-113.036 58.0693 -112.817 58.3664 -112.532 58.5942C-112.239 58.8221 -111.885 58.9849 -111.47 59.0825C-111.055 59.1802 -110.591 59.229 -110.078 59.229C-109.484 59.229 -109.004 59.1476 -108.638 58.9849C-108.263 58.814 -107.987 58.582 -107.808 58.2891C-107.629 57.9961 -107.539 57.6706 -107.539 57.3125ZM-89.375 62H-93.2812L-93.2568 58.9238H-89.375C-88.488 58.9238 -87.7393 58.7204 -87.1289 58.3135C-86.5186 57.8984 -86.0547 57.2881 -85.7373 56.4824C-85.4199 55.6686 -85.2612 54.6799 -85.2612 53.5161V52.6982C-85.2612 51.8193 -85.3507 51.0462 -85.5298 50.3789C-85.7088 49.7035 -85.9733 49.1379 -86.3232 48.6821C-86.6732 48.2264 -87.1086 47.8846 -87.6294 47.6567C-88.1421 47.4289 -88.7321 47.3149 -89.3994 47.3149H-93.3545V44.2266H-89.3994C-88.195 44.2266 -87.0964 44.43 -86.1035 44.8369C-85.1025 45.2438 -84.2399 45.8257 -83.5156 46.5825C-82.7832 47.3394 -82.2176 48.2345 -81.8188 49.2681C-81.4201 50.3016 -81.2207 51.4531 -81.2207 52.7227V53.5161C-81.2207 54.7775 -81.4201 55.929 -81.8188 56.9707C-82.2176 58.0042 -82.7832 58.8994 -83.5156 59.6562C-84.2399 60.4049 -85.0985 60.9827 -86.0913 61.3896C-87.0841 61.7965 -88.1787 62 -89.375 62ZM-91.0229 44.2266V62H-95.0024V44.2266H-91.0229ZM-66.7065 58.9238V62H-76.167V58.9238H-66.7065ZM-74.812 44.2266V62H-78.7915V44.2266H-74.812ZM-67.9272 51.3799V54.3584H-76.167V51.3799H-67.9272ZM-66.6943 44.2266V47.3149H-76.167V44.2266H-66.6943ZM-58.5278 44.2266H-51.7041C-50.3451 44.2266 -49.1691 44.43 -48.1763 44.8369C-47.1753 45.2438 -46.4062 45.846 -45.8691 46.6436C-45.332 47.4411 -45.0635 48.4258 -45.0635 49.5977C-45.0635 50.5742 -45.2222 51.4043 -45.5396 52.0879C-45.8569 52.7715 -46.3045 53.3371 -46.8823 53.7847C-47.452 54.2323 -48.1193 54.5944 -48.8843 54.8711L-50.1782 55.5791H-55.9888L-56.0132 52.4907H-51.6919C-51.0978 52.4907 -50.6055 52.3849 -50.2148 52.1733C-49.8242 51.9618 -49.5312 51.6647 -49.3359 51.2822C-49.1325 50.8916 -49.0308 50.4359 -49.0308 49.915C-49.0308 49.3779 -49.1325 48.9141 -49.3359 48.5234C-49.5394 48.1328 -49.8405 47.8358 -50.2393 47.6323C-50.6299 47.4207 -51.1182 47.3149 -51.7041 47.3149H-54.5483V62H-58.5278V44.2266ZM-48.689 62L-52.6807 54.1021L-48.4814 54.0898L-44.4287 61.8169V62H-48.689ZM-30.2808 58.9238V62H-39.7412V58.9238H-30.2808ZM-38.3862 44.2266V62H-42.3657V44.2266H-38.3862ZM-31.5015 51.3799V54.3584H-39.7412V51.3799H-31.5015ZM-30.2686 44.2266V47.3149H-39.7412V44.2266H-30.2686ZM-13.667 44.2266V62H-17.6343L-24.3481 50.5132V62H-28.3276V44.2266H-24.3481L-17.6221 55.7134V44.2266H-13.667ZM-5.09766 62H-9.00391L-8.97949 58.9238H-5.09766C-4.21061 58.9238 -3.46191 58.7204 -2.85156 58.3135C-2.24121 57.8984 -1.77734 57.2881 -1.45996 56.4824C-1.14258 55.6686 -0.983887 54.6799 -0.983887 53.5161V52.6982C-0.983887 51.8193 -1.0734 51.0462 -1.25244 50.3789C-1.43148 49.7035 -1.69596 49.1379 -2.0459 48.6821C-2.39583 48.2264 -2.83122 47.8846 -3.35205 47.6567C-3.86475 47.4289 -4.45475 47.3149 -5.12207 47.3149H-9.07715V44.2266H-5.12207C-3.91764 44.2266 -2.81901 44.43 -1.82617 44.8369C-0.825195 45.2438 0.0374349 45.8257 0.761719 46.5825C1.49414 47.3394 2.05973 48.2345 2.4585 49.2681C2.85726 50.3016 3.05664 51.4531 3.05664 52.7227V53.5161C3.05664 54.7775 2.85726 55.929 2.4585 56.9707C2.05973 58.0042 1.49414 58.8994 0.761719 59.6562C0.0374349 60.4049 -0.821126 60.9827 -1.81396 61.3896C-2.8068 61.7965 -3.90137 62 -5.09766 62ZM-6.74561 44.2266V62H-10.7251V44.2266H-6.74561ZM12.6025 47.6079L8.0127 62H3.76465L10.3442 44.2266H13.0298L12.6025 47.6079ZM16.4111 62L11.8091 47.6079L11.333 44.2266H14.0552L20.6592 62H16.4111ZM16.2158 55.3838V58.46H6.95068V55.3838H16.2158ZM40.4468 58.9238V62H30.9863V58.9238H40.4468ZM32.3413 44.2266V62H28.3618V44.2266H32.3413ZM39.2261 51.3799V54.3584H30.9863V51.3799H39.2261ZM40.459 44.2266V47.3149H30.9863V44.2266H40.459ZM45.769 44.2266L48.894 50.2812L52.019 44.2266H56.5601L51.5063 53.04L56.6943 62H52.1167L48.894 55.8354L45.6836 62H41.0938L46.2939 53.04L41.228 44.2266H45.769ZM66.5942 44.2266V62H62.627V44.2266H66.5942ZM72.002 44.2266V47.3149H57.3291V44.2266H72.002ZM73.9673 44.2266H80.791C82.1501 44.2266 83.326 44.43 84.3188 44.8369C85.3198 45.2438 86.0889 45.846 86.626 46.6436C87.1631 47.4411 87.4316 48.4258 87.4316 49.5977C87.4316 50.5742 87.2729 51.4043 86.9556 52.0879C86.6382 52.7715 86.1906 53.3371 85.6128 53.7847C85.0431 54.2323 84.3758 54.5944 83.6108 54.8711L82.3169 55.5791H76.5063L76.4819 52.4907H80.8032C81.3973 52.4907 81.8896 52.3849 82.2803 52.1733C82.6709 51.9618 82.9639 51.6647 83.1592 51.2822C83.3626 50.8916 83.4644 50.4359 83.4644 49.915C83.4644 49.3779 83.3626 48.9141 83.1592 48.5234C82.9557 48.1328 82.6546 47.8358 82.2559 47.6323C81.8652 47.4207 81.377 47.3149 80.791 47.3149H77.9468V62H73.9673V44.2266ZM83.8062 62L79.8145 54.1021L84.0137 54.0898L88.0664 61.8169V62H83.8062ZM97.5146 47.6079L92.9248 62H88.6768L95.2563 44.2266H97.9419L97.5146 47.6079ZM101.323 62L96.7212 47.6079L96.2451 44.2266H98.9673L105.571 62H101.323ZM101.128 55.3838V58.46H91.8628V55.3838H101.128Z" fill="#252525"/>
<path fill-rule="evenodd" clip-rule="evenodd" d="M132.354 53C132.354 46.5682 137.568 41.3542 144 41.3542C150.432 41.3542 155.646 46.5682 155.646 53C155.646 59.4318 150.432 64.6459 144 64.6459C137.568 64.6459 132.354 59.4318 132.354 53Z" fill="#252525"/>
<path fill-rule="evenodd" clip-rule="evenodd" d="M142.873 50.01C142.497 50.01 142.115 50.3506 142.115 50.855C142.115 51.237 142.197 51.3747 142.238 51.427C142.287 51.4891 142.384 51.5665 142.645 51.6596L145.908 52.7979C146.29 52.9338 146.726 53.147 147.052 53.5643C147.385 53.9908 147.521 54.5228 147.521 55.1342C147.521 56.4642 146.491 57.6042 145.137 57.6042H143.101C141.622 57.6042 140.479 56.361 140.479 54.8958C140.479 54.4471 140.843 54.0833 141.292 54.0833C141.74 54.0833 142.104 54.4471 142.104 54.8958C142.104 55.5323 142.586 55.9792 143.101 55.9792H145.137C145.517 55.9792 145.896 55.6459 145.896 55.1342C145.896 54.7597 145.815 54.62 145.771 54.5644C145.721 54.4998 145.621 54.4209 145.366 54.3296L142.102 53.1913C141.726 53.0573 141.287 52.8478 140.96 52.4307C140.625 52.0036 140.49 51.4697 140.49 50.855C140.49 49.5394 141.516 48.385 142.873 48.385H144.91C146.389 48.385 147.532 49.6282 147.532 51.0933C147.532 51.5421 147.168 51.9058 146.719 51.9058C146.27 51.9058 145.907 51.5421 145.907 51.0933C145.907 50.4568 145.424 50.01 144.91 50.01H142.873Z" fill="#E68600"/>
<path fill-rule="evenodd" clip-rule="evenodd" d="M144 47.3125C144.449 47.3125 144.813 47.6763 144.813 48.125V57.875C144.813 58.3237 144.449 58.6875 144 58.6875C143.551 58.6875 143.188 58.3237 143.188 57.875V48.125C143.188 47.6763 143.551 47.3125 144 47.3125Z" fill="#E68600"/>
<path d="M192.414 44.2144V62H188.593V48.5601L184.467 49.8174V46.8633L192.036 44.2144H192.414ZM210.151 51.5264V54.688C210.151 55.9901 210.004 57.1172 209.711 58.0693C209.427 59.0215 209.012 59.8068 208.466 60.4253C207.929 61.0438 207.286 61.5036 206.538 61.8047C205.797 62.0977 204.975 62.2441 204.072 62.2441C203.347 62.2441 202.672 62.1506 202.045 61.9634C201.419 61.7762 200.853 61.4873 200.349 61.0967C199.852 60.6979 199.425 60.2015 199.067 59.6074C198.709 59.0133 198.432 58.3053 198.237 57.4834C198.05 56.6615 197.956 55.7297 197.956 54.688V51.5264C197.956 50.208 198.098 49.0768 198.383 48.1328C198.676 47.1888 199.095 46.4076 199.641 45.7891C200.186 45.1706 200.829 44.7148 201.569 44.4219C202.318 44.1289 203.144 43.9824 204.047 43.9824C204.772 43.9824 205.443 44.076 206.062 44.2632C206.688 44.4504 207.254 44.7393 207.758 45.1299C208.263 45.5205 208.69 46.0129 209.04 46.6069C209.398 47.201 209.671 47.909 209.858 48.731C210.053 49.5448 210.151 50.4766 210.151 51.5264ZM206.342 55.1641V51.0259C206.342 50.4155 206.306 49.8866 206.232 49.439C206.167 48.9832 206.07 48.5967 205.939 48.2793C205.817 47.9619 205.663 47.7056 205.476 47.5103C205.288 47.3149 205.073 47.1725 204.829 47.083C204.593 46.9854 204.332 46.9365 204.047 46.9365C203.689 46.9365 203.368 47.0098 203.083 47.1562C202.798 47.3027 202.558 47.5347 202.363 47.8521C202.167 48.1613 202.017 48.5804 201.911 49.1094C201.813 49.6302 201.765 50.269 201.765 51.0259V55.1641C201.765 55.7744 201.797 56.3075 201.862 56.7632C201.936 57.2189 202.033 57.6095 202.155 57.9351C202.285 58.2524 202.444 58.5129 202.631 58.7163C202.819 58.9116 203.034 59.054 203.278 59.1436C203.522 59.2331 203.787 59.2778 204.072 59.2778C204.43 59.2778 204.747 59.2087 205.024 59.0703C205.301 58.9238 205.537 58.6919 205.732 58.3745C205.935 58.049 206.086 57.6217 206.184 57.0928C206.289 56.5638 206.342 55.9209 206.342 55.1641ZM223.2 44.2266V62H219.233V44.2266H223.2ZM232.038 62H228.132L228.156 58.9238H232.038C232.925 58.9238 233.674 58.7204 234.284 58.3135C234.895 57.8984 235.358 57.2881 235.676 56.4824C235.993 55.6686 236.152 54.6799 236.152 53.5161V52.6982C236.152 51.8193 236.062 51.0462 235.883 50.3789C235.704 49.7035 235.44 49.1379 235.09 48.6821C234.74 48.2264 234.305 47.8846 233.784 47.6567C233.271 47.4289 232.681 47.3149 232.014 47.3149H228.059V44.2266H232.014C233.218 44.2266 234.317 44.43 235.31 44.8369C236.311 45.2438 237.173 45.8257 237.897 46.5825C238.63 47.3394 239.195 48.2345 239.594 49.2681C239.993 50.3016 240.192 51.4531 240.192 52.7227V53.5161C240.192 54.7775 239.993 55.929 239.594 56.9707C239.195 58.0042 238.63 58.8994 237.897 59.6562C237.173 60.4049 236.315 60.9827 235.322 61.3896C234.329 61.7965 233.234 62 232.038 62ZM230.39 44.2266V62H226.411V44.2266H230.39ZM254.707 58.9238V62H245.246V58.9238H254.707ZM246.601 44.2266V62H242.622V44.2266H246.601ZM253.486 51.3799V54.3584H245.246V51.3799H253.486ZM254.719 44.2266V47.3149H245.246V44.2266H254.719ZM260.896 44.2266V62H256.928V44.2266H260.896ZM271.711 47.6079L267.121 62H262.873L269.453 44.2266H272.138L271.711 47.6079ZM275.52 62L270.917 47.6079L270.441 44.2266H273.164L279.768 62H275.52ZM275.324 55.3838V58.46H266.059V55.3838H275.324ZM290.461 57.3125C290.461 57.0114 290.416 56.7428 290.327 56.5068C290.237 56.2627 290.074 56.0389 289.838 55.8354C289.602 55.632 289.269 55.4285 288.837 55.2251C288.406 55.0135 287.84 54.7979 287.141 54.5781C286.343 54.3177 285.582 54.0247 284.858 53.6992C284.142 53.3656 283.503 52.979 282.941 52.5396C282.38 52.1001 281.936 51.5874 281.611 51.0015C281.293 50.4155 281.135 49.7319 281.135 48.9507C281.135 48.1938 281.302 47.5103 281.635 46.8999C281.969 46.2896 282.437 45.7687 283.039 45.3374C283.641 44.8979 284.349 44.5643 285.163 44.3364C285.977 44.1004 286.872 43.9824 287.849 43.9824C289.151 43.9824 290.294 44.2144 291.279 44.6782C292.272 45.134 293.045 45.7769 293.598 46.6069C294.152 47.4289 294.428 48.3851 294.428 49.4756H290.473C290.473 48.9954 290.371 48.5723 290.168 48.2061C289.973 47.8317 289.672 47.5387 289.265 47.3271C288.866 47.1156 288.365 47.0098 287.763 47.0098C287.177 47.0098 286.685 47.0993 286.286 47.2783C285.896 47.4492 285.598 47.6852 285.395 47.9863C285.2 48.2874 285.102 48.617 285.102 48.9751C285.102 49.2599 285.175 49.5203 285.322 49.7563C285.476 49.9842 285.696 50.1999 285.981 50.4033C286.274 50.5986 286.632 50.7858 287.055 50.9648C287.478 51.1439 287.963 51.3148 288.508 51.4775C289.46 51.7786 290.302 52.1123 291.035 52.4785C291.775 52.8447 292.398 53.2598 292.902 53.7236C293.407 54.1875 293.785 54.7124 294.038 55.2983C294.298 55.8843 294.428 56.5475 294.428 57.2881C294.428 58.0775 294.274 58.7773 293.964 59.3877C293.663 59.998 293.224 60.5189 292.646 60.9502C292.076 61.3734 291.393 61.6948 290.595 61.9146C289.798 62.1343 288.907 62.2441 287.922 62.2441C287.027 62.2441 286.144 62.1302 285.273 61.9023C284.402 61.6663 283.613 61.3083 282.905 60.8281C282.205 60.348 281.643 59.7376 281.22 58.9971C280.805 58.2484 280.598 57.3613 280.598 56.3359H284.577C284.577 56.873 284.654 57.3288 284.809 57.7031C284.964 58.0693 285.183 58.3664 285.468 58.5942C285.761 58.8221 286.115 58.9849 286.53 59.0825C286.945 59.1802 287.409 59.229 287.922 59.229C288.516 59.229 288.996 59.1476 289.362 58.9849C289.737 58.814 290.013 58.582 290.192 58.2891C290.371 57.9961 290.461 57.6706 290.461 57.3125ZM308.625 62H304.719L304.743 58.9238H308.625C309.512 58.9238 310.261 58.7204 310.871 58.3135C311.481 57.8984 311.945 57.2881 312.263 56.4824C312.58 55.6686 312.739 54.6799 312.739 53.5161V52.6982C312.739 51.8193 312.649 51.0462 312.47 50.3789C312.291 49.7035 312.027 49.1379 311.677 48.6821C311.327 48.2264 310.891 47.8846 310.371 47.6567C309.858 47.4289 309.268 47.3149 308.601 47.3149H304.646V44.2266H308.601C309.805 44.2266 310.904 44.43 311.896 44.8369C312.897 45.2438 313.76 45.8257 314.484 46.5825C315.217 47.3394 315.782 48.2345 316.181 49.2681C316.58 50.3016 316.779 51.4531 316.779 52.7227V53.5161C316.779 54.7775 316.58 55.929 316.181 56.9707C315.782 58.0042 315.217 58.8994 314.484 59.6562C313.76 60.4049 312.902 60.9827 311.909 61.3896C310.916 61.7965 309.821 62 308.625 62ZM306.977 44.2266V62H302.998V44.2266H306.977ZM331.293 58.9238V62H321.833V58.9238H331.293ZM323.188 44.2266V62H319.208V44.2266H323.188ZM330.073 51.3799V54.3584H321.833V51.3799H330.073ZM331.306 44.2266V47.3149H321.833V44.2266H331.306ZM339.472 44.2266H346.296C347.655 44.2266 348.831 44.43 349.824 44.8369C350.825 45.2438 351.594 45.846 352.131 46.6436C352.668 47.4411 352.937 48.4258 352.937 49.5977C352.937 50.5742 352.778 51.4043 352.46 52.0879C352.143 52.7715 351.695 53.3371 351.118 53.7847C350.548 54.2323 349.881 54.5944 349.116 54.8711L347.822 55.5791H342.011L341.987 52.4907H346.308C346.902 52.4907 347.395 52.3849 347.785 52.1733C348.176 51.9618 348.469 51.6647 348.664 51.2822C348.868 50.8916 348.969 50.4359 348.969 49.915C348.969 49.3779 348.868 48.9141 348.664 48.5234C348.461 48.1328 348.16 47.8358 347.761 47.6323C347.37 47.4207 346.882 47.3149 346.296 47.3149H343.452V62H339.472V44.2266ZM349.311 62L345.319 54.1021L349.519 54.0898L353.571 61.8169V62H349.311ZM367.719 58.9238V62H358.259V58.9238H367.719ZM359.614 44.2266V62H355.634V44.2266H359.614ZM366.499 51.3799V54.3584H358.259V51.3799H366.499ZM367.731 44.2266V47.3149H358.259V44.2266H367.731ZM384.333 44.2266V62H380.366L373.652 50.5132V62H369.672V44.2266H373.652L380.378 55.7134V44.2266H384.333ZM392.902 62H388.996L389.021 58.9238H392.902C393.789 58.9238 394.538 58.7204 395.148 58.3135C395.759 57.8984 396.223 57.2881 396.54 56.4824C396.857 55.6686 397.016 54.6799 397.016 53.5161V52.6982C397.016 51.8193 396.927 51.0462 396.748 50.3789C396.569 49.7035 396.304 49.1379 395.954 48.6821C395.604 48.2264 395.169 47.8846 394.648 47.6567C394.135 47.4289 393.545 47.3149 392.878 47.3149H388.923V44.2266H392.878C394.082 44.2266 395.181 44.43 396.174 44.8369C397.175 45.2438 398.037 45.8257 398.762 46.5825C399.494 47.3394 400.06 48.2345 400.458 49.2681C400.857 50.3016 401.057 51.4531 401.057 52.7227V53.5161C401.057 54.7775 400.857 55.929 400.458 56.9707C400.06 58.0042 399.494 58.8994 398.762 59.6562C398.037 60.4049 397.179 60.9827 396.186 61.3896C395.193 61.7965 394.099 62 392.902 62ZM391.254 44.2266V62H387.275V44.2266H391.254ZM410.603 47.6079L406.013 62H401.765L408.344 44.2266H411.03L410.603 47.6079ZM414.411 62L409.809 47.6079L409.333 44.2266H412.055L418.659 62H414.411ZM414.216 55.3838V58.46H404.951V55.3838H414.216ZM438.447 58.9238V62H428.986V58.9238H438.447ZM430.341 44.2266V62H426.362V44.2266H430.341ZM437.226 51.3799V54.3584H428.986V51.3799H437.226ZM438.459 44.2266V47.3149H428.986V44.2266H438.459ZM443.769 44.2266L446.894 50.2812L450.019 44.2266H454.56L449.506 53.04L454.694 62H450.117L446.894 55.8354L443.684 62H439.094L444.294 53.04L439.228 44.2266H443.769ZM464.594 44.2266V62H460.627V44.2266H464.594ZM470.002 44.2266V47.3149H455.329V44.2266H470.002ZM471.967 44.2266H478.791C480.15 44.2266 481.326 44.43 482.319 44.8369C483.32 45.2438 484.089 45.846 484.626 46.6436C485.163 47.4411 485.432 48.4258 485.432 49.5977C485.432 50.5742 485.273 51.4043 484.956 52.0879C484.638 52.7715 484.191 53.3371 483.613 53.7847C483.043 54.2323 482.376 54.5944 481.611 54.8711L480.317 55.5791H474.506L474.482 52.4907H478.803C479.397 52.4907 479.89 52.3849 480.28 52.1733C480.671 51.9618 480.964 51.6647 481.159 51.2822C481.363 50.8916 481.464 50.4359 481.464 49.915C481.464 49.3779 481.363 48.9141 481.159 48.5234C480.956 48.1328 480.655 47.8358 480.256 47.6323C479.865 47.4207 479.377 47.3149 478.791 47.3149H475.947V62H471.967V44.2266ZM481.806 62L477.814 54.1021L482.014 54.0898L486.066 61.8169V62H481.806ZM495.515 47.6079L490.925 62H486.677L493.256 44.2266H495.942L495.515 47.6079ZM499.323 62L494.721 47.6079L494.245 44.2266H496.967L503.571 62H499.323ZM499.128 55.3838V58.46H489.863V55.3838H499.128Z" fill="#252525"/>
<path fill-rule="evenodd" clip-rule="evenodd" d="M530.354 53C530.354 46.5682 535.568 41.3542 542 41.3542C548.432 41.3542 553.646 46.5682 553.646 53C553.646 59.4318 548.432 64.6459 542 64.6459C535.568 64.6459 530.354 59.4318 530.354 53Z" fill="#252525"/>
<path fill-rule="evenodd" clip-rule="evenodd" d="M540.873 50.01C540.497 50.01 540.115 50.3506 540.115 50.855C540.115 51.237 540.197 51.3747 540.238 51.427C540.287 51.4891 540.384 51.5665 540.645 51.6596L543.908 52.7979C544.29 52.9338 544.726 53.147 545.052 53.5643C545.385 53.9908 545.521 54.5228 545.521 55.1342C545.521 56.4642 544.491 57.6042 543.137 57.6042H541.101C539.622 57.6042 538.479 56.361 538.479 54.8958C538.479 54.4471 538.843 54.0833 539.292 54.0833C539.74 54.0833 540.104 54.4471 540.104 54.8958C540.104 55.5323 540.586 55.9792 541.101 55.9792H543.137C543.517 55.9792 543.896 55.6459 543.896 55.1342C543.896 54.7597 543.815 54.62 543.771 54.5644C543.721 54.4998 543.621 54.4209 543.366 54.3296L540.102 53.1913C539.726 53.0573 539.287 52.8478 538.96 52.4307C538.625 52.0036 538.49 51.4697 538.49 50.855C538.49 49.5394 539.516 48.385 540.873 48.385H542.91C544.389 48.385 545.532 49.6282 545.532 51.0933C545.532 51.5421 545.168 51.9058 544.719 51.9058C544.27 51.9058 543.907 51.5421 543.907 51.0933C543.907 50.4568 543.424 50.01 542.91 50.01H540.873Z" fill="#E68600"/>
<path fill-rule="evenodd" clip-rule="evenodd" d="M542 47.3125C542.449 47.3125 542.813 47.6763 542.813 48.125V57.875C542.813 58.3237 542.449 58.6875 542 58.6875C541.551 58.6875 541.188 58.3237 541.188 57.875V48.125C541.188 47.6763 541.551 47.3125 542 47.3125Z" fill="#E68600"/>
<path d="M590.414 44.2144V62H586.593V48.5601L582.467 49.8174V46.8633L590.036 44.2144H590.414ZM608.151 51.5264V54.688C608.151 55.9901 608.004 57.1172 607.711 58.0693C607.427 59.0215 607.012 59.8068 606.466 60.4253C605.929 61.0438 605.286 61.5036 604.538 61.8047C603.797 62.0977 602.975 62.2441 602.072 62.2441C601.347 62.2441 600.672 62.1506 600.045 61.9634C599.419 61.7762 598.853 61.4873 598.349 61.0967C597.852 60.6979 597.425 60.2015 597.067 59.6074C596.709 59.0133 596.432 58.3053 596.237 57.4834C596.05 56.6615 595.956 55.7297 595.956 54.688V51.5264C595.956 50.208 596.098 49.0768 596.383 48.1328C596.676 47.1888 597.095 46.4076 597.641 45.7891C598.186 45.1706 598.829 44.7148 599.569 44.4219C600.318 44.1289 601.144 43.9824 602.047 43.9824C602.772 43.9824 603.443 44.076 604.062 44.2632C604.688 44.4504 605.254 44.7393 605.758 45.1299C606.263 45.5205 606.69 46.0129 607.04 46.6069C607.398 47.201 607.671 47.909 607.858 48.731C608.053 49.5448 608.151 50.4766 608.151 51.5264ZM604.342 55.1641V51.0259C604.342 50.4155 604.306 49.8866 604.232 49.439C604.167 48.9832 604.07 48.5967 603.939 48.2793C603.817 47.9619 603.663 47.7056 603.476 47.5103C603.288 47.3149 603.073 47.1725 602.829 47.083C602.593 46.9854 602.332 46.9365 602.047 46.9365C601.689 46.9365 601.368 47.0098 601.083 47.1562C600.798 47.3027 600.558 47.5347 600.363 47.8521C600.167 48.1613 600.017 48.5804 599.911 49.1094C599.813 49.6302 599.765 50.269 599.765 51.0259V55.1641C599.765 55.7744 599.797 56.3075 599.862 56.7632C599.936 57.2189 600.033 57.6095 600.155 57.9351C600.285 58.2524 600.444 58.5129 600.631 58.7163C600.819 58.9116 601.034 59.054 601.278 59.1436C601.522 59.2331 601.787 59.2778 602.072 59.2778C602.43 59.2778 602.747 59.2087 603.024 59.0703C603.301 58.9238 603.537 58.6919 603.732 58.3745C603.935 58.049 604.086 57.6217 604.184 57.0928C604.289 56.5638 604.342 55.9209 604.342 55.1641ZM621.2 44.2266V62H617.233V44.2266H621.2ZM630.038 62H626.132L626.156 58.9238H630.038C630.925 58.9238 631.674 58.7204 632.284 58.3135C632.895 57.8984 633.358 57.2881 633.676 56.4824C633.993 55.6686 634.152 54.6799 634.152 53.5161V52.6982C634.152 51.8193 634.062 51.0462 633.883 50.3789C633.704 49.7035 633.44 49.1379 633.09 48.6821C632.74 48.2264 632.305 47.8846 631.784 47.6567C631.271 47.4289 630.681 47.3149 630.014 47.3149H626.059V44.2266H630.014C631.218 44.2266 632.317 44.43 633.31 44.8369C634.311 45.2438 635.173 45.8257 635.897 46.5825C636.63 47.3394 637.195 48.2345 637.594 49.2681C637.993 50.3016 638.192 51.4531 638.192 52.7227V53.5161C638.192 54.7775 637.993 55.929 637.594 56.9707C637.195 58.0042 636.63 58.8994 635.897 59.6562C635.173 60.4049 634.315 60.9827 633.322 61.3896C632.329 61.7965 631.234 62 630.038 62ZM628.39 44.2266V62H624.411V44.2266H628.39ZM652.707 58.9238V62H643.246V58.9238H652.707ZM644.601 44.2266V62H640.622V44.2266H644.601ZM651.486 51.3799V54.3584H643.246V51.3799H651.486ZM652.719 44.2266V47.3149H643.246V44.2266H652.719ZM658.896 44.2266V62H654.928V44.2266H658.896ZM669.711 47.6079L665.121 62H660.873L667.453 44.2266H670.138L669.711 47.6079ZM673.52 62L668.917 47.6079L668.441 44.2266H671.164L677.768 62H673.52ZM673.324 55.3838V58.46H664.059V55.3838H673.324ZM688.461 57.3125C688.461 57.0114 688.416 56.7428 688.327 56.5068C688.237 56.2627 688.074 56.0389 687.838 55.8354C687.602 55.632 687.269 55.4285 686.837 55.2251C686.406 55.0135 685.84 54.7979 685.141 54.5781C684.343 54.3177 683.582 54.0247 682.858 53.6992C682.142 53.3656 681.503 52.979 680.941 52.5396C680.38 52.1001 679.936 51.5874 679.611 51.0015C679.293 50.4155 679.135 49.7319 679.135 48.9507C679.135 48.1938 679.302 47.5103 679.635 46.8999C679.969 46.2896 680.437 45.7687 681.039 45.3374C681.641 44.8979 682.349 44.5643 683.163 44.3364C683.977 44.1004 684.872 43.9824 685.849 43.9824C687.151 43.9824 688.294 44.2144 689.279 44.6782C690.272 45.134 691.045 45.7769 691.598 46.6069C692.152 47.4289 692.428 48.3851 692.428 49.4756H688.473C688.473 48.9954 688.371 48.5723 688.168 48.2061C687.973 47.8317 687.672 47.5387 687.265 47.3271C686.866 47.1156 686.365 47.0098 685.763 47.0098C685.177 47.0098 684.685 47.0993 684.286 47.2783C683.896 47.4492 683.598 47.6852 683.395 47.9863C683.2 48.2874 683.102 48.617 683.102 48.9751C683.102 49.2599 683.175 49.5203 683.322 49.7563C683.476 49.9842 683.696 50.1999 683.981 50.4033C684.274 50.5986 684.632 50.7858 685.055 50.9648C685.478 51.1439 685.963 51.3148 686.508 51.4775C687.46 51.7786 688.302 52.1123 689.035 52.4785C689.775 52.8447 690.398 53.2598 690.902 53.7236C691.407 54.1875 691.785 54.7124 692.038 55.2983C692.298 55.8843 692.428 56.5475 692.428 57.2881C692.428 58.0775 692.274 58.7773 691.964 59.3877C691.663 59.998 691.224 60.5189 690.646 60.9502C690.076 61.3734 689.393 61.6948 688.595 61.9146C687.798 62.1343 686.907 62.2441 685.922 62.2441C685.027 62.2441 684.144 62.1302 683.273 61.9023C682.402 61.6663 681.613 61.3083 680.905 60.8281C680.205 60.348 679.643 59.7376 679.22 58.9971C678.805 58.2484 678.598 57.3613 678.598 56.3359H682.577C682.577 56.873 682.654 57.3288 682.809 57.7031C682.964 58.0693 683.183 58.3664 683.468 58.5942C683.761 58.8221 684.115 58.9849 684.53 59.0825C684.945 59.1802 685.409 59.229 685.922 59.229C686.516 59.229 686.996 59.1476 687.362 58.9849C687.737 58.814 688.013 58.582 688.192 58.2891C688.371 57.9961 688.461 57.6706 688.461 57.3125ZM706.625 62H702.719L702.743 58.9238H706.625C707.512 58.9238 708.261 58.7204 708.871 58.3135C709.481 57.8984 709.945 57.2881 710.263 56.4824C710.58 55.6686 710.739 54.6799 710.739 53.5161V52.6982C710.739 51.8193 710.649 51.0462 710.47 50.3789C710.291 49.7035 710.027 49.1379 709.677 48.6821C709.327 48.2264 708.891 47.8846 708.371 47.6567C707.858 47.4289 707.268 47.3149 706.601 47.3149H702.646V44.2266H706.601C707.805 44.2266 708.904 44.43 709.896 44.8369C710.897 45.2438 711.76 45.8257 712.484 46.5825C713.217 47.3394 713.782 48.2345 714.181 49.2681C714.58 50.3016 714.779 51.4531 714.779 52.7227V53.5161C714.779 54.7775 714.58 55.929 714.181 56.9707C713.782 58.0042 713.217 58.8994 712.484 59.6562C711.76 60.4049 710.902 60.9827 709.909 61.3896C708.916 61.7965 707.821 62 706.625 62ZM704.977 44.2266V62H700.998V44.2266H704.977ZM729.293 58.9238V62H719.833V58.9238H729.293ZM721.188 44.2266V62H717.208V44.2266H721.188ZM728.073 51.3799V54.3584H719.833V51.3799H728.073ZM729.306 44.2266V47.3149H719.833V44.2266H729.306ZM737.472 44.2266H744.296C745.655 44.2266 746.831 44.43 747.824 44.8369C748.825 45.2438 749.594 45.846 750.131 46.6436C750.668 47.4411 750.937 48.4258 750.937 49.5977C750.937 50.5742 750.778 51.4043 750.46 52.0879C750.143 52.7715 749.695 53.3371 749.118 53.7847C748.548 54.2323 747.881 54.5944 747.116 54.8711L745.822 55.5791H740.011L739.987 52.4907H744.308C744.902 52.4907 745.395 52.3849 745.785 52.1733C746.176 51.9618 746.469 51.6647 746.664 51.2822C746.868 50.8916 746.969 50.4359 746.969 49.915C746.969 49.3779 746.868 48.9141 746.664 48.5234C746.461 48.1328 746.16 47.8358 745.761 47.6323C745.37 47.4207 744.882 47.3149 744.296 47.3149H741.452V62H737.472V44.2266ZM747.311 62L743.319 54.1021L747.519 54.0898L751.571 61.8169V62H747.311ZM765.719 58.9238V62H756.259V58.9238H765.719ZM757.614 44.2266V62H753.634V44.2266H757.614ZM764.499 51.3799V54.3584H756.259V51.3799H764.499ZM765.731 44.2266V47.3149H756.259V44.2266H765.731ZM782.333 44.2266V62H778.366L771.652 50.5132V62H767.672V44.2266H771.652L778.378 55.7134V44.2266H782.333ZM790.902 62H786.996L787.021 58.9238H790.902C791.789 58.9238 792.538 58.7204 793.148 58.3135C793.759 57.8984 794.223 57.2881 794.54 56.4824C794.857 55.6686 795.016 54.6799 795.016 53.5161V52.6982C795.016 51.8193 794.927 51.0462 794.748 50.3789C794.569 49.7035 794.304 49.1379 793.954 48.6821C793.604 48.2264 793.169 47.8846 792.648 47.6567C792.135 47.4289 791.545 47.3149 790.878 47.3149H786.923V44.2266H790.878C792.082 44.2266 793.181 44.43 794.174 44.8369C795.175 45.2438 796.037 45.8257 796.762 46.5825C797.494 47.3394 798.06 48.2345 798.458 49.2681C798.857 50.3016 799.057 51.4531 799.057 52.7227V53.5161C799.057 54.7775 798.857 55.929 798.458 56.9707C798.06 58.0042 797.494 58.8994 796.762 59.6562C796.037 60.4049 795.179 60.9827 794.186 61.3896C793.193 61.7965 792.099 62 790.902 62ZM789.254 44.2266V62H785.275V44.2266H789.254ZM808.603 47.6079L804.013 62H799.765L806.344 44.2266H809.03L808.603 47.6079ZM812.411 62L807.809 47.6079L807.333 44.2266H810.055L816.659 62H812.411ZM812.216 55.3838V58.46H802.951V55.3838H812.216ZM836.447 58.9238V62H826.986V58.9238H836.447ZM828.341 44.2266V62H824.362V44.2266H828.341ZM835.226 51.3799V54.3584H826.986V51.3799H835.226ZM836.459 44.2266V47.3149H826.986V44.2266H836.459ZM841.769 44.2266L844.894 50.2812L848.019 44.2266H852.56L847.506 53.04L852.694 62H848.117L844.894 55.8354L841.684 62H837.094L842.294 53.04L837.228 44.2266H841.769ZM862.594 44.2266V62H858.627V44.2266H862.594ZM868.002 44.2266V47.3149H853.329V44.2266H868.002ZM869.967 44.2266H876.791C878.15 44.2266 879.326 44.43 880.319 44.8369C881.32 45.2438 882.089 45.846 882.626 46.6436C883.163 47.4411 883.432 48.4258 883.432 49.5977C883.432 50.5742 883.273 51.4043 882.956 52.0879C882.638 52.7715 882.191 53.3371 881.613 53.7847C881.043 54.2323 880.376 54.5944 879.611 54.8711L878.317 55.5791H872.506L872.482 52.4907H876.803C877.397 52.4907 877.89 52.3849 878.28 52.1733C878.671 51.9618 878.964 51.6647 879.159 51.2822C879.363 50.8916 879.464 50.4359 879.464 49.915C879.464 49.3779 879.363 48.9141 879.159 48.5234C878.956 48.1328 878.655 47.8358 878.256 47.6323C877.865 47.4207 877.377 47.3149 876.791 47.3149H873.947V62H869.967V44.2266ZM879.806 62L875.814 54.1021L880.014 54.0898L884.066 61.8169V62H879.806ZM893.515 47.6079L888.925 62H884.677L891.256 44.2266H893.942L893.515 47.6079ZM897.323 62L892.721 47.6079L892.245 44.2266H894.967L901.571 62H897.323ZM897.128 55.3838V58.46H887.863V55.3838H897.128Z" fill="#252525"/>
<path fill-rule="evenodd" clip-rule="evenodd" d="M928.354 53C928.354 46.5682 933.568 41.3542 940 41.3542C946.432 41.3542 951.646 46.5682 951.646 53C951.646 59.4318 946.432 64.6459 940 64.6459C933.568 64.6459 928.354 59.4318 928.354 53Z" fill="#252525"/>
<path fill-rule="evenodd" clip-rule="evenodd" d="M938.873 50.01C938.497 50.01 938.115 50.3506 938.115 50.855C938.115 51.237 938.197 51.3747 938.238 51.427C938.287 51.4891 938.384 51.5665 938.645 51.6596L941.908 52.7979C942.29 52.9338 942.726 53.147 943.052 53.5643C943.385 53.9908 943.521 54.5228 943.521 55.1342C943.521 56.4642 942.491 57.6042 941.137 57.6042H939.101C937.622 57.6042 936.479 56.361 936.479 54.8958C936.479 54.4471 936.843 54.0833 937.292 54.0833C937.74 54.0833 938.104 54.4471 938.104 54.8958C938.104 55.5323 938.586 55.9792 939.101 55.9792H941.137C941.517 55.9792 941.896 55.6459 941.896 55.1342C941.896 54.7597 941.815 54.62 941.771 54.5644C941.721 54.4998 941.621 54.4209 941.366 54.3296L938.102 53.1913C937.726 53.0573 937.287 52.8478 936.96 52.4307C936.625 52.0036 936.49 51.4697 936.49 50.855C936.49 49.5394 937.516 48.385 938.873 48.385H940.91C942.389 48.385 943.532 49.6282 943.532 51.0933C943.532 51.5421 943.168 51.9058 942.719 51.9058C942.27 51.9058 941.907 51.5421 941.907 51.0933C941.907 50.4568 941.424 50.01 940.91 50.01H938.873Z" fill="#E68600"/>
<path fill-rule="evenodd" clip-rule="evenodd" d="M940 47.3125C940.449 47.3125 940.813 47.6763 940.813 48.125V57.875C940.813 58.3237 940.449 58.6875 940 58.6875C939.551 58.6875 939.188 58.3237 939.188 57.875V48.125C939.188 47.6763 939.551 47.3125 940 47.3125Z" fill="#E68600"/>
<path d="M988.414 44.2144V62H984.593V48.5601L980.467 49.8174V46.8633L988.036 44.2144H988.414ZM1006.15 51.5264V54.688C1006.15 55.9901 1006 57.1172 1005.71 58.0693C1005.43 59.0215 1005.01 59.8068 1004.47 60.4253C1003.93 61.0438 1003.29 61.5036 1002.54 61.8047C1001.8 62.0977 1000.98 62.2441 1000.07 62.2441C999.347 62.2441 998.672 62.1506 998.045 61.9634C997.419 61.7762 996.853 61.4873 996.349 61.0967C995.852 60.6979 995.425 60.2015 995.067 59.6074C994.709 59.0133 994.432 58.3053 994.237 57.4834C994.05 56.6615 993.956 55.7297 993.956 54.688V51.5264C993.956 50.208 994.098 49.0768 994.383 48.1328C994.676 47.1888 995.095 46.4076 995.641 45.7891C996.186 45.1706 996.829 44.7148 997.569 44.4219C998.318 44.1289 999.144 43.9824 1000.05 43.9824C1000.77 43.9824 1001.44 44.076 1002.06 44.2632C1002.69 44.4504 1003.25 44.7393 1003.76 45.1299C1004.26 45.5205 1004.69 46.0129 1005.04 46.6069C1005.4 47.201 1005.67 47.909 1005.86 48.731C1006.05 49.5448 1006.15 50.4766 1006.15 51.5264ZM1002.34 55.1641V51.0259C1002.34 50.4155 1002.31 49.8866 1002.23 49.439C1002.17 48.9832 1002.07 48.5967 1001.94 48.2793C1001.82 47.9619 1001.66 47.7056 1001.48 47.5103C1001.29 47.3149 1001.07 47.1725 1000.83 47.083C1000.59 46.9854 1000.33 46.9365 1000.05 46.9365C999.689 46.9365 999.368 47.0098 999.083 47.1562C998.798 47.3027 998.558 47.5347 998.363 47.8521C998.167 48.1613 998.017 48.5804 997.911 49.1094C997.813 49.6302 997.765 50.269 997.765 51.0259V55.1641C997.765 55.7744 997.797 56.3075 997.862 56.7632C997.936 57.2189 998.033 57.6095 998.155 57.9351C998.285 58.2524 998.444 58.5129 998.631 58.7163C998.819 58.9116 999.034 59.054 999.278 59.1436C999.522 59.2331 999.787 59.2778 1000.07 59.2778C1000.43 59.2778 1000.75 59.2087 1001.02 59.0703C1001.3 58.9238 1001.54 58.6919 1001.73 58.3745C1001.94 58.049 1002.09 57.6217 1002.18 57.0928C1002.29 56.5638 1002.34 55.9209 1002.34 55.1641ZM1019.2 44.2266V62H1015.23V44.2266H1019.2ZM1028.04 62H1024.13L1024.16 58.9238H1028.04C1028.93 58.9238 1029.67 58.7204 1030.28 58.3135C1030.89 57.8984 1031.36 57.2881 1031.68 56.4824C1031.99 55.6686 1032.15 54.6799 1032.15 53.5161V52.6982C1032.15 51.8193 1032.06 51.0462 1031.88 50.3789C1031.7 49.7035 1031.44 49.1379 1031.09 48.6821C1030.74 48.2264 1030.3 47.8846 1029.78 47.6567C1029.27 47.4289 1028.68 47.3149 1028.01 47.3149H1024.06V44.2266H1028.01C1029.22 44.2266 1030.32 44.43 1031.31 44.8369C1032.31 45.2438 1033.17 45.8257 1033.9 46.5825C1034.63 47.3394 1035.2 48.2345 1035.59 49.2681C1035.99 50.3016 1036.19 51.4531 1036.19 52.7227V53.5161C1036.19 54.7775 1035.99 55.929 1035.59 56.9707C1035.2 58.0042 1034.63 58.8994 1033.9 59.6562C1033.17 60.4049 1032.31 60.9827 1031.32 61.3896C1030.33 61.7965 1029.23 62 1028.04 62ZM1026.39 44.2266V62H1022.41V44.2266H1026.39ZM1050.71 58.9238V62H1041.25V58.9238H1050.71ZM1042.6 44.2266V62H1038.62V44.2266H1042.6ZM1049.49 51.3799V54.3584H1041.25V51.3799H1049.49ZM1050.72 44.2266V47.3149H1041.25V44.2266H1050.72ZM1056.9 44.2266V62H1052.93V44.2266H1056.9ZM1067.71 47.6079L1063.12 62H1058.87L1065.45 44.2266H1068.14L1067.71 47.6079ZM1071.52 62L1066.92 47.6079L1066.44 44.2266H1069.16L1075.77 62H1071.52ZM1071.32 55.3838V58.46H1062.06V55.3838H1071.32ZM1086.46 57.3125C1086.46 57.0114 1086.42 56.7428 1086.33 56.5068C1086.24 56.2627 1086.07 56.0389 1085.84 55.8354C1085.6 55.632 1085.27 55.4285 1084.84 55.2251C1084.41 55.0135 1083.84 54.7979 1083.14 54.5781C1082.34 54.3177 1081.58 54.0247 1080.86 53.6992C1080.14 53.3656 1079.5 52.979 1078.94 52.5396C1078.38 52.1001 1077.94 51.5874 1077.61 51.0015C1077.29 50.4155 1077.13 49.7319 1077.13 48.9507C1077.13 48.1938 1077.3 47.5103 1077.64 46.8999C1077.97 46.2896 1078.44 45.7687 1079.04 45.3374C1079.64 44.8979 1080.35 44.5643 1081.16 44.3364C1081.98 44.1004 1082.87 43.9824 1083.85 43.9824C1085.15 43.9824 1086.29 44.2144 1087.28 44.6782C1088.27 45.134 1089.04 45.7769 1089.6 46.6069C1090.15 47.4289 1090.43 48.3851 1090.43 49.4756H1086.47C1086.47 48.9954 1086.37 48.5723 1086.17 48.2061C1085.97 47.8317 1085.67 47.5387 1085.26 47.3271C1084.87 47.1156 1084.37 47.0098 1083.76 47.0098C1083.18 47.0098 1082.68 47.0993 1082.29 47.2783C1081.9 47.4492 1081.6 47.6852 1081.4 47.9863C1081.2 48.2874 1081.1 48.617 1081.1 48.9751C1081.1 49.2599 1081.18 49.5203 1081.32 49.7563C1081.48 49.9842 1081.7 50.1999 1081.98 50.4033C1082.27 50.5986 1082.63 50.7858 1083.06 50.9648C1083.48 51.1439 1083.96 51.3148 1084.51 51.4775C1085.46 51.7786 1086.3 52.1123 1087.03 52.4785C1087.78 52.8447 1088.4 53.2598 1088.9 53.7236C1089.41 54.1875 1089.79 54.7124 1090.04 55.2983C1090.3 55.8843 1090.43 56.5475 1090.43 57.2881C1090.43 58.0775 1090.27 58.7773 1089.96 59.3877C1089.66 59.998 1089.22 60.5189 1088.65 60.9502C1088.08 61.3734 1087.39 61.6948 1086.6 61.9146C1085.8 62.1343 1084.91 62.2441 1083.92 62.2441C1083.03 62.2441 1082.14 62.1302 1081.27 61.9023C1080.4 61.6663 1079.61 61.3083 1078.9 60.8281C1078.2 60.348 1077.64 59.7376 1077.22 58.9971C1076.81 58.2484 1076.6 57.3613 1076.6 56.3359H1080.58C1080.58 56.873 1080.65 57.3288 1080.81 57.7031C1080.96 58.0693 1081.18 58.3664 1081.47 58.5942C1081.76 58.8221 1082.12 58.9849 1082.53 59.0825C1082.95 59.1802 1083.41 59.229 1083.92 59.229C1084.52 59.229 1085 59.1476 1085.36 58.9849C1085.74 58.814 1086.01 58.582 1086.19 58.2891C1086.37 57.9961 1086.46 57.6706 1086.46 57.3125ZM1104.62 62H1100.72L1100.74 58.9238H1104.62C1105.51 58.9238 1106.26 58.7204 1106.87 58.3135C1107.48 57.8984 1107.95 57.2881 1108.26 56.4824C1108.58 55.6686 1108.74 54.6799 1108.74 53.5161V52.6982C1108.74 51.8193 1108.65 51.0462 1108.47 50.3789C1108.29 49.7035 1108.03 49.1379 1107.68 48.6821C1107.33 48.2264 1106.89 47.8846 1106.37 47.6567C1105.86 47.4289 1105.27 47.3149 1104.6 47.3149H1100.65V44.2266H1104.6C1105.81 44.2266 1106.9 44.43 1107.9 44.8369C1108.9 45.2438 1109.76 45.8257 1110.48 46.5825C1111.22 47.3394 1111.78 48.2345 1112.18 49.2681C1112.58 50.3016 1112.78 51.4531 1112.78 52.7227V53.5161C1112.78 54.7775 1112.58 55.929 1112.18 56.9707C1111.78 58.0042 1111.22 58.8994 1110.48 59.6562C1109.76 60.4049 1108.9 60.9827 1107.91 61.3896C1106.92 61.7965 1105.82 62 1104.62 62ZM1102.98 44.2266V62H1099V44.2266H1102.98ZM1127.29 58.9238V62H1117.83V58.9238H1127.29ZM1119.19 44.2266V62H1115.21V44.2266H1119.19ZM1126.07 51.3799V54.3584H1117.83V51.3799H1126.07ZM1127.31 44.2266V47.3149H1117.83V44.2266H1127.31ZM1135.47 44.2266H1142.3C1143.65 44.2266 1144.83 44.43 1145.82 44.8369C1146.82 45.2438 1147.59 45.846 1148.13 46.6436C1148.67 47.4411 1148.94 48.4258 1148.94 49.5977C1148.94 50.5742 1148.78 51.4043 1148.46 52.0879C1148.14 52.7715 1147.7 53.3371 1147.12 53.7847C1146.55 54.2323 1145.88 54.5944 1145.12 54.8711L1143.82 55.5791H1138.01L1137.99 52.4907H1142.31C1142.9 52.4907 1143.39 52.3849 1143.79 52.1733C1144.18 51.9618 1144.47 51.6647 1144.66 51.2822C1144.87 50.8916 1144.97 50.4359 1144.97 49.915C1144.97 49.3779 1144.87 48.9141 1144.66 48.5234C1144.46 48.1328 1144.16 47.8358 1143.76 47.6323C1143.37 47.4207 1142.88 47.3149 1142.3 47.3149H1139.45V62H1135.47V44.2266ZM1145.31 62L1141.32 54.1021L1145.52 54.0898L1149.57 61.8169V62H1145.31ZM1163.72 58.9238V62H1154.26V58.9238H1163.72ZM1155.61 44.2266V62H1151.63V44.2266H1155.61ZM1162.5 51.3799V54.3584H1154.26V51.3799H1162.5ZM1163.73 44.2266V47.3149H1154.26V44.2266H1163.73ZM1180.33 44.2266V62H1176.37L1169.65 50.5132V62H1165.67V44.2266H1169.65L1176.38 55.7134V44.2266H1180.33ZM1188.9 62H1185L1185.02 58.9238H1188.9C1189.79 58.9238 1190.54 58.7204 1191.15 58.3135C1191.76 57.8984 1192.22 57.2881 1192.54 56.4824C1192.86 55.6686 1193.02 54.6799 1193.02 53.5161V52.6982C1193.02 51.8193 1192.93 51.0462 1192.75 50.3789C1192.57 49.7035 1192.3 49.1379 1191.95 48.6821C1191.6 48.2264 1191.17 47.8846 1190.65 47.6567C1190.14 47.4289 1189.55 47.3149 1188.88 47.3149H1184.92V44.2266H1188.88C1190.08 44.2266 1191.18 44.43 1192.17 44.8369C1193.17 45.2438 1194.04 45.8257 1194.76 46.5825C1195.49 47.3394 1196.06 48.2345 1196.46 49.2681C1196.86 50.3016 1197.06 51.4531 1197.06 52.7227V53.5161C1197.06 54.7775 1196.86 55.929 1196.46 56.9707C1196.06 58.0042 1195.49 58.8994 1194.76 59.6562C1194.04 60.4049 1193.18 60.9827 1192.19 61.3896C1191.19 61.7965 1190.1 62 1188.9 62ZM1187.25 44.2266V62H1183.27V44.2266H1187.25ZM1206.6 47.6079L1202.01 62H1197.76L1204.34 44.2266H1207.03L1206.6 47.6079ZM1210.41 62L1205.81 47.6079L1205.33 44.2266H1208.06L1214.66 62H1210.41ZM1210.22 55.3838V58.46H1200.95V55.3838H1210.22ZM1234.45 58.9238V62H1224.99V58.9238H1234.45ZM1226.34 44.2266V62H1222.36V44.2266H1226.34ZM1233.23 51.3799V54.3584H1224.99V51.3799H1233.23ZM1234.46 44.2266V47.3149H1224.99V44.2266H1234.46ZM1239.77 44.2266L1242.89 50.2812L1246.02 44.2266H1250.56L1245.51 53.04L1250.69 62H1246.12L1242.89 55.8354L1239.68 62H1235.09L1240.29 53.04L1235.23 44.2266H1239.77ZM1260.59 44.2266V62H1256.63V44.2266H1260.59ZM1266 44.2266V47.3149H1251.33V44.2266H1266ZM1267.97 44.2266H1274.79C1276.15 44.2266 1277.33 44.43 1278.32 44.8369C1279.32 45.2438 1280.09 45.846 1280.63 46.6436C1281.16 47.4411 1281.43 48.4258 1281.43 49.5977C1281.43 50.5742 1281.27 51.4043 1280.96 52.0879C1280.64 52.7715 1280.19 53.3371 1279.61 53.7847C1279.04 54.2323 1278.38 54.5944 1277.61 54.8711L1276.32 55.5791H1270.51L1270.48 52.4907H1274.8C1275.4 52.4907 1275.89 52.3849 1276.28 52.1733C1276.67 51.9618 1276.96 51.6647 1277.16 51.2822C1277.36 50.8916 1277.46 50.4359 1277.46 49.915C1277.46 49.3779 1277.36 48.9141 1277.16 48.5234C1276.96 48.1328 1276.65 47.8358 1276.26 47.6323C1275.87 47.4207 1275.38 47.3149 1274.79 47.3149H1271.95V62H1267.97V44.2266ZM1277.81 62L1273.81 54.1021L1278.01 54.0898L1282.07 61.8169V62H1277.81ZM1291.51 47.6079L1286.92 62H1282.68L1289.26 44.2266H1291.94L1291.51 47.6079ZM1295.32 62L1290.72 47.6079L1290.25 44.2266H1292.97L1299.57 62H1295.32ZM1295.13 55.3838V58.46H1285.86V55.3838H1295.13Z" fill="#252525"/>
<defs>
<linearGradient id="paint0_linear_2706_648" x1="544.557" y1="150.5" x2="1216.11" y2="-629.578" gradientUnits="userSpaceOnUse">
<stop stop-color="#995800"/>
<stop offset="1" stop-color="#E68600"/>
</linearGradient>
<linearGradient id="paint1_linear_2706_648" x1="1042.61" y1="15.955" x2="923.295" y2="425.92" gradientUnits="userSpaceOnUse">
<stop stop-color="#F0EDE1"/>
<stop offset="1" stop-color="#D8D8D6"/>
</linearGradient>
</defs>
</svg>
