<svg width="521" height="456" viewBox="0 0 521 456" fill="none" xmlns="http://www.w3.org/2000/svg">
<path d="M0.5 0.5H400C466.55 0.5 520.5 54.4497 520.5 121V455.5H121C54.4497 455.5 0.5 401.55 0.5 335V0.5Z" fill="#09171D"/>
<path d="M0.5 0.5H400C466.55 0.5 520.5 54.4497 520.5 121V455.5H121C54.4497 455.5 0.5 401.55 0.5 335V0.5Z" fill="url(#paint0_linear_3345_74403)"/>
<path d="M0.5 0.5H400C466.55 0.5 520.5 54.4497 520.5 121V455.5H121C54.4497 455.5 0.5 401.55 0.5 335V0.5Z" fill="url(#paint1_linear_3345_74403)"/>
<path d="M0.5 0.5H400C466.55 0.5 520.5 54.4497 520.5 121V455.5H121C54.4497 455.5 0.5 401.55 0.5 335V0.5Z" stroke="url(#paint2_linear_3345_74403)"/>
<path d="M0.5 0.5H400C466.55 0.5 520.5 54.4497 520.5 121V455.5H121C54.4497 455.5 0.5 401.55 0.5 335V0.5Z" stroke="url(#paint3_linear_3345_74403)"/>
<defs>
<linearGradient id="paint0_linear_3345_74403" x1="260.5" y1="0" x2="260.5" y2="456" gradientUnits="userSpaceOnUse">
<stop offset="0.499612" stop-opacity="0"/>
<stop offset="1" stop-color="#003440"/>
</linearGradient>
<linearGradient id="paint1_linear_3345_74403" x1="260.5" y1="0" x2="260.5" y2="456" gradientUnits="userSpaceOnUse">
<stop stop-color="#002B34"/>
<stop offset="0.371398" stop-opacity="0"/>
</linearGradient>
<linearGradient id="paint2_linear_3345_74403" x1="260.5" y1="0" x2="260.5" y2="456" gradientUnits="userSpaceOnUse">
<stop stop-color="#0DA6DB"/>
<stop offset="0.444726" stop-color="#0DA6DB" stop-opacity="0"/>
</linearGradient>
<linearGradient id="paint3_linear_3345_74403" x1="260.5" y1="0" x2="260.5" y2="456" gradientUnits="userSpaceOnUse">
<stop offset="0.599822" stop-color="#0DA6DB" stop-opacity="0"/>
<stop offset="1" stop-color="#0DA6DB"/>
</linearGradient>
</defs>
</svg>
