<svg width="347" height="496" viewBox="0 0 347 496" fill="none" xmlns="http://www.w3.org/2000/svg">
<path d="M70 0.5H277C315.384 0.5 346.5 31.6162 346.5 70V495.5H0.5V70C0.5 31.6162 31.6162 0.5 70 0.5Z" fill="#09171D"/>
<path d="M70 0.5H277C315.384 0.5 346.5 31.6162 346.5 70V495.5H0.5V70C0.5 31.6162 31.6162 0.5 70 0.5Z" fill="url(#paint0_linear_3352_2726)"/>
<path d="M70 0.5H277C315.384 0.5 346.5 31.6162 346.5 70V495.5H0.5V70C0.5 31.6162 31.6162 0.5 70 0.5Z" fill="url(#paint1_linear_3352_2726)"/>
<path d="M70 0.5H277C315.384 0.5 346.5 31.6162 346.5 70V495.5H0.5V70C0.5 31.6162 31.6162 0.5 70 0.5Z" stroke="url(#paint2_linear_3352_2726)"/>
<path d="M70 0.5H277C315.384 0.5 346.5 31.6162 346.5 70V495.5H0.5V70C0.5 31.6162 31.6162 0.5 70 0.5Z" stroke="url(#paint3_linear_3352_2726)"/>
<defs>
<linearGradient id="paint0_linear_3352_2726" x1="173.5" y1="0" x2="173.5" y2="496" gradientUnits="userSpaceOnUse">
<stop offset="0.499612" stop-opacity="0"/>
<stop offset="1" stop-color="#003440"/>
</linearGradient>
<linearGradient id="paint1_linear_3352_2726" x1="173.5" y1="0" x2="173.5" y2="496" gradientUnits="userSpaceOnUse">
<stop stop-color="#002B34"/>
<stop offset="0.371398" stop-opacity="0"/>
</linearGradient>
<linearGradient id="paint2_linear_3352_2726" x1="173.5" y1="0" x2="173.5" y2="496" gradientUnits="userSpaceOnUse">
<stop stop-color="#0DA6DB"/>
<stop offset="0.444726" stop-color="#0DA6DB" stop-opacity="0"/>
</linearGradient>
<linearGradient id="paint3_linear_3352_2726" x1="173.5" y1="0" x2="173.5" y2="496" gradientUnits="userSpaceOnUse">
<stop offset="0.599822" stop-color="#0DA6DB" stop-opacity="0"/>
<stop offset="1" stop-color="#0DA6DB"/>
</linearGradient>
</defs>
</svg>
