<svg width="1920" height="618" viewBox="0 0 1920 618" fill="none" xmlns="http://www.w3.org/2000/svg">
<g clip-path="url(#clip0_3523_1698)">
<rect width="1920" height="618" fill="#F1F1F1"/>
<path d="M318.204 298.371H318.599L318.611 298.336C325.672 298.54 331.427 304.227 331.53 311.298C331.612 317.519 331.517 323.792 331.176 330.104C323.535 473.993 207.55 590.936 63.0766 600.237C-110.298 611.385 -253.855 468.63 -242.859 296.129L-243.224 296.106L-242.859 296.129C-233.799 153.979 -118.879 39.0325 23.9032 29.2422L23.8657 28.6947L23.9032 29.2422C75.1647 25.7252 123.791 35.7329 166.659 55.9514L166.659 55.9516C173.287 59.0712 177.499 65.761 177.499 73.0595V137.056C177.499 143.375 182.641 148.488 188.983 148.488L188.984 148.488L188.983 147.94C188.984 148.488 188.984 148.488 188.985 148.488H188.986L188.994 148.488L189.024 148.488L189.144 148.488L189.612 148.488L191.41 148.486L198.005 148.479C203.563 148.473 211.219 148.464 219.606 148.453C236.381 148.431 256.083 148.4 267.791 148.366H267.792C274.194 148.34 280.147 151.552 283.696 156.87C294.638 173.272 303.902 190.856 311.297 209.378C313.612 215.184 309.953 221.644 303.758 222.714L235.846 234.401L235.845 234.401C231.538 235.15 227.192 233.004 225.321 229.086L225.321 229.086C193.054 161.695 123.942 114.998 44.0697 114.998C-71.6722 114.998 -164.844 213.028 -156.016 330.052C-148.654 427.707 -69.4533 506.528 28.6639 513.854C120.803 520.743 201.21 465.275 231.695 385.51L231.979 384.765H231.182H34.5966C29.1559 384.765 24.7425 380.369 24.7425 374.961V308.08C24.7425 302.671 29.1427 298.276 34.5966 298.276H297.971V298.371H298.52H318.204Z" stroke="#11D6FF" stroke-width="1.09762"/>
<path d="M2150.31 285.371H2150.71L2150.72 285.336C2157.78 285.54 2163.53 291.227 2163.64 298.298C2163.72 304.519 2163.62 310.792 2163.28 317.104C2155.64 460.993 2039.66 577.936 1895.18 587.237C1721.81 598.385 1578.25 455.63 1589.25 283.129L1588.88 283.106L1589.25 283.129C1598.31 140.979 1713.23 26.0325 1856.01 16.2422L1855.97 15.6947L1856.01 16.2422C1907.27 12.7252 1955.9 22.7329 1998.77 42.9514L1998.77 42.9516C2005.39 46.0712 2009.61 52.761 2009.61 60.0595V124.056C2009.61 130.375 2014.75 135.488 2021.09 135.488L2021.09 135.488L2021.09 134.94C2021.09 135.488 2021.09 135.488 2021.09 135.488H2021.09L2021.1 135.488L2021.13 135.488L2021.25 135.488L2021.72 135.488L2023.52 135.486L2030.11 135.479C2035.67 135.473 2043.33 135.464 2051.71 135.453C2068.49 135.431 2088.19 135.4 2099.9 135.366H2099.9C2106.3 135.34 2112.25 138.552 2115.8 143.87C2126.75 160.272 2136.01 177.856 2143.4 196.378C2145.72 202.184 2142.06 208.644 2135.87 209.714L2067.95 221.401L2067.95 221.401C2063.65 222.15 2059.3 220.004 2057.43 216.086L2057.43 216.086C2025.16 148.695 1956.05 101.998 1876.18 101.998C1760.44 101.998 1667.26 200.028 1676.09 317.052C1683.45 414.707 1762.65 493.528 1860.77 500.854C1952.91 507.743 2033.32 452.275 2063.8 372.51L2064.09 371.765H2063.29H1866.7C1861.26 371.765 1856.85 367.369 1856.85 361.961V295.08C1856.85 289.671 1861.25 285.276 1866.7 285.276H2130.08V285.371H2130.63H2150.31Z" stroke="#11D6FF" stroke-width="1.09762"/>
</g>
<defs>
<clipPath id="clip0_3523_1698">
<rect width="1920" height="618" fill="white"/>
</clipPath>
</defs>
</svg>
