<svg width="40" height="40" viewBox="0 0 40 40" fill="none" xmlns="http://www.w3.org/2000/svg">
<path d="M36.6673 27.9002V7.78349C36.6673 5.78349 35.034 4.30015 33.0507 4.46682H32.9507C29.4507 4.76682 24.134 6.55015 21.1673 8.41682L20.884 8.60015C20.4007 8.90015 19.6007 8.90015 19.1173 8.60015L18.7007 8.35015C15.734 6.50015 10.434 4.73349 6.93398 4.45015C4.95065 4.28349 3.33398 5.78348 3.33398 7.76682V27.9002C3.33398 29.5002 4.63398 31.0002 6.23398 31.2002L6.71732 31.2668C10.334 31.7502 15.9173 33.5835 19.1173 35.3335L19.184 35.3668C19.634 35.6168 20.3507 35.6168 20.784 35.3668C23.984 33.6002 29.584 31.7502 33.2173 31.2668L33.7673 31.2002C35.3673 31.0002 36.6673 29.5002 36.6673 27.9002Z" stroke="#00B87B" stroke-width="2.5" stroke-linecap="round" stroke-linejoin="round"/>
<path d="M20 9.15039V34.1504" stroke="#00B87B" stroke-width="2.5" stroke-linecap="round" stroke-linejoin="round"/>
<path d="M12.916 14.1504H9.16602" stroke="#00B87B" stroke-width="2.5" stroke-linecap="round" stroke-linejoin="round"/>
<path d="M14.166 19.1504H9.16602" stroke="#00B87B" stroke-width="2.5" stroke-linecap="round" stroke-linejoin="round"/>
</svg>
