<svg width="41" height="41" viewBox="0 0 41 41" fill="none" xmlns="http://www.w3.org/2000/svg">
<path d="M17.0827 28.9559H10.6081C4.85102 28.9559 3.41602 27.5209 3.41602 21.7639V11.5139C3.41602 5.75678 4.85102 4.32178 10.6081 4.32178H28.5968C34.3539 4.32178 35.7889 5.75678 35.7889 11.5139" stroke="#00B87B" stroke-width="2.5625" stroke-linecap="round" stroke-linejoin="round"/>
<path d="M17.084 36.6782V28.9565" stroke="#00B87B" stroke-width="2.5625" stroke-linecap="round" stroke-linejoin="round"/>
<path d="M3.41602 22.123H17.0827" stroke="#00B87B" stroke-width="2.5625" stroke-linecap="round" stroke-linejoin="round"/>
<path d="M11.5137 36.6782H17.0828" stroke="#00B87B" stroke-width="2.5625" stroke-linecap="round" stroke-linejoin="round"/>
<path d="M37.5842 21.8662V31.6208C37.5842 35.6696 36.5763 36.6775 32.5275 36.6775H26.4629C22.4142 36.6775 21.4062 35.6696 21.4062 31.6208V21.8662C21.4062 17.8175 22.4142 16.8096 26.4629 16.8096H32.5275C36.5763 16.8096 37.5842 17.8175 37.5842 21.8662Z" stroke="#00B87B" stroke-width="2.5625" stroke-linecap="round" stroke-linejoin="round"/>
<path d="M29.46 31.1769H29.4754" stroke="#00B87B" stroke-width="3.41667" stroke-linecap="round" stroke-linejoin="round"/>
</svg>
