<svg width="45" height="42" viewBox="0 0 45 42" fill="none" xmlns="http://www.w3.org/2000/svg">
<path d="M18.7716 4.82163L7.52778 11.5354C3.92303 13.6879 3.92303 18.5054 7.52778 20.6579L18.7716 27.3716C20.7888 28.5845 24.1134 28.5845 26.1305 27.3716L37.3183 20.6579C40.9044 18.5054 40.9044 13.705 37.3183 11.5525L26.1305 4.83871C24.1134 3.60871 20.7888 3.60871 18.7716 4.82163Z" stroke="#00B87B" stroke-width="2.875" stroke-linecap="round" stroke-linejoin="round"/>
<path d="M10.5148 22.8452L10.4961 30.8573C10.4961 33.0269 12.3265 35.3502 14.5678 36.0335L20.5259 37.8444C21.5532 38.1519 23.2528 38.1519 24.2987 37.8444L30.2568 36.0335C32.4981 35.3502 34.3285 33.0269 34.3285 30.8573V22.9306" stroke="#00B87B" stroke-width="2.875" stroke-linecap="round" stroke-linejoin="round"/>
<path d="M39.9688 26.125V15.875" stroke="#00B87B" stroke-width="2.875" stroke-linecap="round" stroke-linejoin="round"/>
</svg>
